<?xml version="1.0" encoding="UTF-8"?>
<svg version="1.1" xmlns="http://www.w3.org/2000/svg" width="229" height="220">
<path d="M0 0 C75.57 0 151.14 0 229 0 C229 72.6 229 145.2 229 220 C153.43 220 77.86 220 0 220 C0 147.4 0 74.8 0 0 Z " fill="#F4F4F5" transform="translate(0,0)"/>
<path d="M0 0 C22.50741973 -0.66198293 43.18469554 7.56326653 60.125 22.15625 C60.74246094 22.67703125 61.35992187 23.1978125 61.99609375 23.734375 C74.31192644 34.99781552 83.07014205 53.31772932 84.32836914 69.82421875 C84.42723004 72.56358243 84.45409352 75.29019354 84.4375 78.03125 C84.43012817 79.48023682 84.43012817 79.48023682 84.42260742 80.95849609 C84.3061411 88.05517759 83.58876898 94.45479837 81.125 101.15625 C80.76148438 102.1565625 80.39796875 103.156875 80.0234375 104.1875 C75.58953833 115.51539724 69.64834175 124.49037746 61.125 133.15625 C60.43664062 133.8575 59.74828125 134.55875 59.0390625 135.28125 C43.56981696 150.00291118 22.27709579 156.59990942 1.23339844 156.52270508 C-17.41660517 156.0342526 -35.84104188 149.62154214 -49.875 137.15625 C-50.84179688 136.38539063 -51.80859375 135.61453125 -52.8046875 134.8203125 C-62.04077483 127.12188703 -68.26499099 116.07597957 -72.875 105.15625 C-73.30941406 104.13917969 -73.74382812 103.12210937 -74.19140625 102.07421875 C-79.64332848 86.66826429 -79.27094852 66.19268799 -72.875 51.15625 C-72.43929687 50.12886719 -72.00359375 49.10148437 -71.5546875 48.04296875 C-62.08622 27.6831766 -46.29329467 13.93807791 -25.875 5.15625 C-17.25651877 2.13750155 -9.06302288 0.49255559 0 0 Z " fill="#F0F2F2" transform="translate(109.875,32.84375)"/>
<path d="M0 0 C22.50741973 -0.66198293 43.18469554 7.56326653 60.125 22.15625 C60.74246094 22.67703125 61.35992187 23.1978125 61.99609375 23.734375 C74.31192644 34.99781552 83.07014205 53.31772932 84.32836914 69.82421875 C84.42723004 72.56358243 84.45409352 75.29019354 84.4375 78.03125 C84.43012817 79.48023682 84.43012817 79.48023682 84.42260742 80.95849609 C84.3061411 88.05517759 83.58876898 94.45479837 81.125 101.15625 C80.76148438 102.1565625 80.39796875 103.156875 80.0234375 104.1875 C75.58953833 115.51539724 69.64834175 124.49037746 61.125 133.15625 C60.43664062 133.8575 59.74828125 134.55875 59.0390625 135.28125 C43.56981696 150.00291118 22.27709579 156.59990942 1.23339844 156.52270508 C-17.41660517 156.0342526 -35.84104188 149.62154214 -49.875 137.15625 C-50.84179688 136.38539063 -51.80859375 135.61453125 -52.8046875 134.8203125 C-62.04077483 127.12188703 -68.26499099 116.07597957 -72.875 105.15625 C-73.30941406 104.13917969 -73.74382812 103.12210937 -74.19140625 102.07421875 C-79.64332848 86.66826429 -79.27094852 66.19268799 -72.875 51.15625 C-72.43929687 50.12886719 -72.00359375 49.10148437 -71.5546875 48.04296875 C-62.08622 27.6831766 -46.29329467 13.93807791 -25.875 5.15625 C-17.25651877 2.13750155 -9.06302288 0.49255559 0 0 Z M-51.875 27.15625 C-52.93074219 28.23519531 -52.93074219 28.23519531 -54.0078125 29.3359375 C-68.90810812 45.25602522 -73.53903889 62.88725115 -73.20703125 84.17578125 C-72.51734458 102.0820907 -63.8826645 117.9133025 -51.5859375 130.6640625 C-35.14989545 145.77385332 -14.47848204 153.12134754 7.73828125 152.4375 C27.199082 151.42325631 45.64702041 143.20218335 59.125 129.15625 C59.86621094 128.40085937 60.60742188 127.64546875 61.37109375 126.8671875 C76.01932166 111.25285543 80.720844 93.14973542 80.3984375 72.2734375 C79.94552059 60.19714808 75.72384865 49.20080287 69.125 39.15625 C68.465 38.82625 67.805 38.49625 67.125 38.15625 C67.09921875 39.16042969 67.0734375 40.16460937 67.046875 41.19921875 C66.50872678 55.88813691 63.8554391 68.8637928 52.7890625 79.375 C41.78831901 88.22845122 28.2360296 90.26570058 14.72021484 92.71020508 C-1.86130791 95.74125252 -15.57395187 100.96656109 -26.6640625 114.30859375 C-28.05771808 116.06685606 -28.05771808 116.06685606 -27.875 118.15625 C-36.125 118.15625 -44.375 118.15625 -52.875 118.15625 C-52.029375 116.27164063 -51.18375 114.38703125 -50.3125 112.4453125 C-49.46167757 110.54853566 -48.61096127 108.65171126 -47.76025391 106.75488281 C-47.18451744 105.47130487 -46.60867673 104.18777368 -46.03271484 102.90429688 C-41.63143806 93.09617919 -37.25716584 83.27626824 -32.89434814 73.45098877 C-31.54644291 70.416608 -30.19682024 67.38299291 -28.84701538 64.34945679 C-27.50434035 61.33192657 -26.16220418 58.3141568 -24.82006836 55.29638672 C-24.14673071 53.78264146 -23.47322731 52.26896992 -22.79956055 50.75537109 C-20.81425287 46.29453267 -18.83264421 41.83208382 -16.85565186 37.36755371 C-16.18773481 35.86144587 -15.51828007 34.35601923 -14.84747314 32.85119629 C-13.85457835 30.62363171 -12.86629552 28.39407183 -11.87890625 26.1640625 C-11.57564926 25.48665009 -11.27239227 24.80923767 -10.95994568 24.11129761 C-9.3942237 20.76187999 -9.3942237 20.76187999 -8.875 17.15625 C-0.955 17.15625 6.965 17.15625 15.125 17.15625 C16.115 20.12625 16.115 20.12625 17.125 23.15625 C18.10096008 25.4249873 19.10730414 27.68079292 20.13671875 29.92578125 C20.73294847 31.23297406 21.32913842 32.54018501 21.92529297 33.84741211 C22.23416443 34.52174286 22.54303589 35.19607361 22.86126709 35.89083862 C28.19987921 47.55271737 33.36066524 59.24541309 38.125 71.15625 C30.865 71.81625 23.605 72.47625 16.125 73.15625 C15.795 71.17625 15.465 69.19625 15.125 67.15625 C14.35086024 65.04196175 13.5117305 62.95072772 12.62109375 60.8828125 C12.12802734 59.72910156 11.63496094 58.57539062 11.12695312 57.38671875 C10.61068359 56.19691406 10.09441406 55.00710937 9.5625 53.78125 C9.04236328 52.56824219 8.52222656 51.35523438 7.98632812 50.10546875 C6.70508244 47.11981367 5.41780626 44.13691312 4.125 41.15625 C3.465 41.15625 2.805 41.15625 2.125 41.15625 C-0.14138389 46.47393078 -2.40153715 51.79420008 -4.65600586 57.11694336 C-5.42351151 58.92658461 -6.1927024 60.7355121 -6.96362305 62.54370117 C-8.07265997 65.14575493 -9.1755727 67.75033159 -10.27734375 70.35546875 C-10.62216293 71.16086594 -10.96698212 71.96626312 -11.32225037 72.79606628 C-12.90917412 76.56402776 -14.29921953 80.07571885 -14.875 84.15625 C-13.63858765 83.51743896 -13.63858765 83.51743896 -12.37719727 82.86572266 C-3.1017419 78.43675583 4.93581294 77.35531829 15.1875 77.53125 C28.74228659 77.69236716 41.79825871 76.938232 52.125 67.15625 C52.66640625 66.65480469 53.2078125 66.15335938 53.765625 65.63671875 C58.56574314 60.65477795 60.80288918 54.57929614 63.125 48.15625 C63.37378906 47.46917969 63.62257812 46.78210938 63.87890625 46.07421875 C65.20053643 41.97993783 65.79680601 38.41102137 65.125 34.15625 C63.1567884 31.10552202 60.72306742 28.67690759 58.125 26.15625 C57.48433594 25.49496094 56.84367188 24.83367188 56.18359375 24.15234375 C40.97468629 9.4051868 21.28486071 4.71134496 0.76635742 4.79711914 C-19.45294437 5.11101411 -37.78314701 12.34173789 -51.875 27.15625 Z " fill="#0470BC" transform="translate(109.875,32.84375)"/>
<path d="M0 0 C14.1296908 -0.57516903 26.92609989 -0.83142402 40 5 C40.95592041 5.41813965 40.95592041 5.41813965 41.93115234 5.84472656 C51.79800241 10.29404772 59.53524635 16.16025088 67 24 C67.76957031 24.79019531 68.53914063 25.58039062 69.33203125 26.39453125 C71.55867702 29.87268753 71.42799339 31.92096094 71 36 C68.00949293 48.35899825 62.9420218 59.79884035 52 67 C48.4105595 68.63790003 44.78815092 69.90590672 41 71 C40.4318457 71.17708496 39.86369141 71.35416992 39.27832031 71.53662109 C36.17480482 72.16783331 33.19769585 72.12831378 30.03125 72.140625 C28.64060893 72.15897633 27.24998354 72.17854873 25.859375 72.19921875 C23.69179101 72.22794459 21.52520735 72.24999426 19.35742188 72.25048828 C9.64842473 72.26611914 1.77498724 73.43654761 -7 78 C-7.99 78.495 -7.99 78.495 -9 79 C-8.32961478 74.71906803 -6.85857365 70.9355665 -5.1640625 66.9765625 C-4.88404388 66.31216156 -4.60402527 65.64776062 -4.31552124 64.96322632 C-3.42306112 62.84860051 -2.52412976 60.73679725 -1.625 58.625 C-1.0282198 57.21372174 -0.43186152 55.802265 0.1640625 54.390625 C2.75796841 48.25266482 5.37272965 42.12374976 8 36 C8.66 36 9.32 36 10 36 C11.71577309 40.0722992 13.42456771 44.14743388 15.12695312 48.2253418 C15.70707279 49.61221066 16.28909253 50.99828632 16.87304688 52.38354492 C17.71204306 54.374734 18.54416662 56.36867484 19.375 58.36328125 C19.87773438 59.56251221 20.38046875 60.76174316 20.8984375 61.99731445 C22 65 22 65 22 68 C24.35441716 67.85758352 26.70847484 67.71115192 29.0625 67.5625 C30.37347656 67.48128906 31.68445313 67.40007812 33.03515625 67.31640625 C36.73663238 67.02101751 40.33370448 66.56734612 44 66 C40.34165386 57.06574892 36.46584137 48.23836106 32.5 39.4375 C31.93865889 38.18821537 31.37746054 36.93886659 30.81640625 35.68945312 C27.67486409 28.69232902 27.67486409 28.69232902 24.48046875 21.71923828 C23.79404297 20.23593018 23.79404297 20.23593018 23.09375 18.72265625 C22.48563477 17.42146851 22.48563477 17.42146851 21.86523438 16.09399414 C21 14 21 14 21 12 C13.08 12 5.16 12 -3 12 C-3.99 14.97 -4.98 17.94 -6 21 C-6.644506 22.54824892 -7.31687455 24.08595194 -8.04296875 25.59765625 C-8.56987305 26.70463867 -8.56987305 26.70463867 -9.10742188 27.83398438 C-9.46384766 28.56939453 -9.82027344 29.30480469 -10.1875 30.0625 C-10.55552734 30.83271484 -10.92355469 31.60292969 -11.30273438 32.39648438 C-12.19712622 34.26657642 -13.09788195 36.13362275 -14 38 C-14.66 37.67 -15.32 37.34 -16 37 C-19.34234746 36.76251742 -22.68350537 36.61728628 -26.03125 36.4765625 C-27.50078125 36.24066406 -27.50078125 36.24066406 -29 36 C-31.15942819 32.76085771 -31.27232978 31.75140267 -31.25 28 C-31.25515625 27.13375 -31.2603125 26.2675 -31.265625 25.375 C-31 23 -31 23 -29 20 C-27.68 20 -26.36 20 -25 20 C-24.67 18.68 -24.34 17.36 -24 16 C-24.99 15.67 -25.98 15.34 -27 15 C-26.34 15 -25.68 15 -25 15 C-24.855625 14.38125 -24.71125 13.7625 -24.5625 13.125 C-24 11 -24 11 -23 9 C-21.67288808 8.64270064 -20.33737094 8.31674575 -19 8 C-17.906875 7.505 -16.81375 7.01 -15.6875 6.5 C-12.04572467 5.01859987 -8.89408199 4.39735531 -5 4 C-5 3.34 -5 2.68 -5 2 C-3.68 2.33 -2.36 2.66 -1 3 C-0.67 2.01 -0.34 1.02 0 0 Z " fill="#F8F9F9" transform="translate(104,38)"/>
<path d="M0 0 C22.50741973 -0.66198293 43.18469554 7.56326653 60.125 22.15625 C60.74246094 22.67703125 61.35992187 23.1978125 61.99609375 23.734375 C74.31192644 34.99781552 83.07014205 53.31772932 84.32836914 69.82421875 C84.42723004 72.56358243 84.45409352 75.29019354 84.4375 78.03125 C84.43012817 79.48023682 84.43012817 79.48023682 84.42260742 80.95849609 C84.3061411 88.05517759 83.58876898 94.45479837 81.125 101.15625 C80.76148438 102.1565625 80.39796875 103.156875 80.0234375 104.1875 C75.58953833 115.51539724 69.64834175 124.49037746 61.125 133.15625 C60.43664062 133.8575 59.74828125 134.55875 59.0390625 135.28125 C43.56981696 150.00291118 22.27709579 156.59990942 1.23339844 156.52270508 C-17.41660517 156.0342526 -35.84104188 149.62154214 -49.875 137.15625 C-50.84179688 136.38539063 -51.80859375 135.61453125 -52.8046875 134.8203125 C-62.04077483 127.12188703 -68.26499099 116.07597957 -72.875 105.15625 C-73.30941406 104.13917969 -73.74382812 103.12210937 -74.19140625 102.07421875 C-79.64332848 86.66826429 -79.27094852 66.19268799 -72.875 51.15625 C-72.43929687 50.12886719 -72.00359375 49.10148437 -71.5546875 48.04296875 C-62.08622 27.6831766 -46.29329467 13.93807791 -25.875 5.15625 C-17.25651877 2.13750155 -9.06302288 0.49255559 0 0 Z M-51.875 27.15625 C-52.93074219 28.23519531 -52.93074219 28.23519531 -54.0078125 29.3359375 C-68.90810812 45.25602522 -73.53903889 62.88725115 -73.20703125 84.17578125 C-72.51734458 102.0820907 -63.8826645 117.9133025 -51.5859375 130.6640625 C-35.14989545 145.77385332 -14.47848204 153.12134754 7.73828125 152.4375 C27.199082 151.42325631 45.64702041 143.20218335 59.125 129.15625 C59.86621094 128.40085937 60.60742188 127.64546875 61.37109375 126.8671875 C76.01932166 111.25285543 80.720844 93.14973542 80.3984375 72.2734375 C79.94552059 60.19714808 75.72384865 49.20080287 69.125 39.15625 C68.465 38.82625 67.805 38.49625 67.125 38.15625 C66.568125 39.950625 66.568125 39.950625 66 41.78125 C58.425 64.50625 58.425 64.50625 53.125 67.15625 C53.125 67.81625 53.125 68.47625 53.125 69.15625 C51.475 69.81625 49.825 70.47625 48.125 71.15625 C48.125 71.81625 48.125 72.47625 48.125 73.15625 C46.52243892 73.66137244 44.91788208 74.16016627 43.3125 74.65625 C42.41917969 74.9346875 41.52585937 75.213125 40.60546875 75.5 C38.125 76.15625 38.125 76.15625 35.125 76.15625 C35.80304688 75.97191406 36.48109375 75.78757812 37.1796875 75.59765625 C46.17854448 72.79330331 52.84924439 68.29103148 57.9765625 60.25390625 C61.93670917 52.67500487 66.73789419 42.86587864 65.125 34.15625 C63.14366314 31.11326224 60.72397491 28.67778804 58.125 26.15625 C57.48433594 25.49496094 56.84367188 24.83367188 56.18359375 24.15234375 C40.97468629 9.4051868 21.28486071 4.71134496 0.76635742 4.79711914 C-19.45294437 5.11101411 -37.78314701 12.34173789 -51.875 27.15625 Z " fill="#146DB0" transform="translate(109.875,32.84375)"/>
<path d="M0 0 C1.63391459 2.89077197 2.74115913 5.91801029 4 9 C8.62 9 13.24 9 18 9 C18.99 15.435 18.99 15.435 20 22 C21.32 21.67 22.64 21.34 24 21 C20.80613225 28.69431775 15.75865098 34.06388674 10 40 C8.77216797 41.28003906 8.77216797 41.28003906 7.51953125 42.5859375 C-7.43709596 56.91647334 -28.09200215 62.43337253 -48.31176758 62.15380859 C-50.20809772 62.11293852 -52.10411761 62.05803722 -54 62 C-54 61.67 -54 61.34 -54 61 C-49.71 61 -45.42 61 -41 61 C-41.020625 59.865625 -41.04125 58.73125 -41.0625 57.5625 C-41 54 -41 54 -40 53 C-35.33154772 52.85573386 -30.67134047 52.95791585 -26 53 C-26 47.72 -26 42.44 -26 37 C-21.38 37 -16.76 37 -12 37 C-11.67 34.36 -11.34 31.72 -11 29 C-11.66 29 -12.32 29 -13 29 C-15.97 21.41 -18.94 13.82 -22 6 C-18.87394057 3.91596038 -16.69121065 3.32531862 -13.0625 2.5 C-8.79949114 1.54402029 -8.79949114 1.54402029 -4.80859375 -0.15625 C-3 -1 -3 -1 0 0 Z " fill="#ECEEEE" transform="translate(158,123)"/>
<path d="M0 0 C4.62 0 9.24 0 14 0 C14 4.95 14 9.9 14 15 C10.90755208 14.96744792 7.81510417 14.93489583 4.72265625 14.90234375 C2.08552366 14.68737429 2.08552366 14.68737429 1 16 C0.79111292 17.99603206 0.63224523 19.99742941 0.5 22 C0.11111111 27.88888889 0.11111111 27.88888889 -1 29 C-2.68608966 29.07205511 -4.37500659 29.08386068 -6.0625 29.0625 C-6.98160156 29.05347656 -7.90070313 29.04445312 -8.84765625 29.03515625 C-9.55792969 29.02355469 -10.26820313 29.01195312 -11 29 C-11.495 30.485 -11.495 30.485 -12 32 C-12.99 32.495 -12.99 32.495 -14 33 C-14.33 36.63 -14.66 40.26 -15 44 C-29.52 44 -44.04 44 -59 44 C-59 30 -59 30 -58 29 C-55.98405418 28.76572222 -53.961526 28.58663876 -51.9375 28.4375 C-50.28041016 28.31181641 -50.28041016 28.31181641 -48.58984375 28.18359375 C-47.73519531 28.12300781 -46.88054687 28.06242187 -46 28 C-45.87882812 27.14535156 -45.75765625 26.29070312 -45.6328125 25.41015625 C-45.46523437 24.30542969 -45.29765625 23.20070312 -45.125 22.0625 C-44.88136719 20.40927734 -44.88136719 20.40927734 -44.6328125 18.72265625 C-44.42398438 17.82417969 -44.21515625 16.92570312 -44 16 C-41.38322622 14.69161311 -39.41798478 14.90294492 -36.5 14.9375 C-35.03046875 14.95103516 -35.03046875 14.95103516 -33.53125 14.96484375 C-32.6959375 14.97644531 -31.860625 14.98804688 -31 15 C-30.34 15 -29.68 15 -29 15 C-29 14.34 -29 13.68 -29 13 C-28.01 12.67 -27.02 12.34 -26 12 C-26 11.01 -26 10.02 -26 9 C-22.32589215 7.82428549 -18.83070817 7.92633254 -15 8 C-15 10.31 -15 12.62 -15 15 C-15.99 15 -16.98 15 -18 15 C-17.01 15.33 -16.02 15.66 -15 16 C-14.38640625 15.69320312 -13.7728125 15.38640625 -13.140625 15.0703125 C-10.51115599 13.755578 -8.6708061 13.79813668 -5.75 13.875 C-3.39875 13.936875 -3.39875 13.936875 -1 14 C-0.67 9.38 -0.34 4.76 0 0 Z " fill="#F8F8F8" transform="translate(162,176)"/>
<path d="M0 0 C6.93 0.495 6.93 0.495 14 1 C14.09765625 11.05859375 14.09765625 11.05859375 14 14 C12.05909174 15.94090826 8.52706098 15.39919435 5.9375 15.5625 C3.648125 15.706875 1.35875 15.85125 -1 16 C-1 20.62 -1 25.24 -1 30 C3.95 30 8.9 30 14 30 C13.9175 28.081875 13.835 26.16375 13.75 24.1875 C13.609375 20.91796875 13.609375 20.91796875 14 18 C16.58556606 15.31846315 17.85995117 15.01931708 21.625 14.5 C22.73875 14.335 23.8525 14.17 25 14 C25.66 13.01 26.32 12.02 27 11 C26.02463609 23.67973082 21.52354666 34.92167377 12.3125 43.8125 C7.74771153 47.60329737 2.6441233 49.36986501 -3 51 C-3.85223145 51.26562744 -3.85223145 51.26562744 -4.72167969 51.53662109 C-7.82519518 52.16783331 -10.80230415 52.12831378 -13.96875 52.140625 C-15.35939107 52.15897633 -16.75001646 52.17854873 -18.140625 52.19921875 C-20.30820899 52.22794459 -22.47479265 52.24999426 -24.64257812 52.25048828 C-34.35157527 52.26611914 -42.22501276 53.43654761 -51 58 C-51.99 58.495 -51.99 58.495 -53 59 C-52.32961478 54.71906803 -50.85857365 50.9355665 -49.1640625 46.9765625 C-48.88404388 46.31216156 -48.60402527 45.64776062 -48.31552124 44.96322632 C-47.42306112 42.84860051 -46.52412976 40.73679725 -45.625 38.625 C-45.0282198 37.21372174 -44.43186152 35.802265 -43.8359375 34.390625 C-41.24203159 28.25266482 -38.62727035 22.12374976 -36 16 C-35.34 16 -34.68 16 -34 16 C-32.28422691 20.0722992 -30.57543229 24.14743388 -28.87304688 28.2253418 C-28.29292721 29.61221066 -27.71090747 30.99828632 -27.12695312 32.38354492 C-26.28795694 34.374734 -25.45583338 36.36867484 -24.625 38.36328125 C-24.12226562 39.56251221 -23.61953125 40.76174316 -23.1015625 41.99731445 C-22 45 -22 45 -22 48 C-19.64558284 47.85758352 -17.29152516 47.71115192 -14.9375 47.5625 C-13.62652344 47.48128906 -12.31554687 47.40007812 -10.96484375 47.31640625 C-7.26336762 47.02101751 -3.66629552 46.56734612 0 46 C-4.2965255 35.65115732 -8.64700386 25.32518355 -13 15 C-10.59454362 13.79727181 -9.05003047 13.89928528 -6.375 13.9375 C-5.14910156 13.95103516 -5.14910156 13.95103516 -3.8984375 13.96484375 C-2.95871094 13.98224609 -2.95871094 13.98224609 -2 14 C-1.90912109 12.73542969 -1.90912109 12.73542969 -1.81640625 11.4453125 C-1.73261719 10.34960938 -1.64882812 9.25390625 -1.5625 8.125 C-1.48128906 7.03445312 -1.40007812 5.94390625 -1.31640625 4.8203125 C-1 2 -1 2 0 0 Z " fill="#E7ECED" transform="translate(148,58)"/>
<path d="M0 0 C0.33 0 0.66 0 1 0 C1.33 1.98 1.66 3.96 2 6 C1.34 6 0.68 6 0 6 C0 6.66 0 7.32 0 8 C1.32 8.33 2.64 8.66 4 9 C3.67 9.66 3.34 10.32 3 11 C4.98 11.66 6.96 12.32 9 13 C9.09765625 19.15234375 9.09765625 19.15234375 9 21 C8 22 8 22 5.09375 22.1328125 C3.9078125 22.13023437 2.721875 22.12765625 1.5 22.125 C0.3140625 22.12757813 -0.871875 22.13015625 -2.09375 22.1328125 C-5 22 -5 22 -6 21 C-6.12487758 19.19072719 -6.17570846 17.37603893 -6.1875 15.5625 C-6.20167969 14.57378906 -6.21585938 13.58507812 -6.23046875 12.56640625 C-6 10 -6 10 -4 8 C-3.01 8 -2.02 8 -1 8 C-0.67 5.36 -0.34 2.72 0 0 Z M-36 21 C-32.94799113 21.18220948 -29.92299148 21.52141777 -26.8828125 21.84375 C-23.93020788 22.1806849 -23.93020788 22.1806849 -21 21 C-20.01 21.33 -19.02 21.66 -18 22 C-16.50225982 22.09225211 -15.00057026 22.1300019 -13.5 22.125 C-12.7265625 22.12757813 -11.953125 22.13015625 -11.15625 22.1328125 C-8.81552983 22.08145813 -8.81552983 22.08145813 -6 21 C-6 26.28 -6 31.56 -6 37 C-10.62 37.33 -15.24 37.66 -20 38 C-20.33 40.31 -20.66 42.62 -21 45 C-23.14576637 45.02685938 -25.29162645 45.04633088 -27.4375 45.0625 C-28.63246094 45.07410156 -29.82742187 45.08570313 -31.05859375 45.09765625 C-34 45 -34 45 -35 44 C-35 41.69 -35 39.38 -35 37 C-39.95 37 -44.9 37 -50 37 C-50 32.38 -50 27.76 -50 23 C-45.59907734 22.40326472 -41.44085242 22 -37 22 C-36.67 21.67 -36.34 21.34 -36 21 Z " fill="#FAFAFA" transform="translate(138,139)"/>
<path d="M0 0 C3.35286458 0.03255208 6.70572917 0.06510417 10.05859375 0.09765625 C10.55359375 7.02765625 10.55359375 7.02765625 11.05859375 14.09765625 C17.98859375 14.59265625 17.98859375 14.59265625 25.05859375 15.09765625 C25.05859375 20.04765625 25.05859375 24.99765625 25.05859375 30.09765625 C20.43859375 30.09765625 15.81859375 30.09765625 11.05859375 30.09765625 C10.91421875 32.22203125 10.76984375 34.34640625 10.62109375 36.53515625 C10.18359375 42.97265625 10.18359375 42.97265625 9.05859375 44.09765625 C7.27143731 44.30722508 5.47815606 44.46577241 3.68359375 44.59765625 C0.53838866 44.83001969 -1.93768532 45.09641594 -4.94140625 46.09765625 C-4.61140625 46.75765625 -4.28140625 47.41765625 -3.94140625 48.09765625 C-3.80363775 51.767809 -3.89868664 55.42376973 -3.94140625 59.09765625 C-8.89140625 59.09765625 -13.84140625 59.09765625 -18.94140625 59.09765625 C-19.0390625 48.2578125 -19.0390625 48.2578125 -18.94140625 45.09765625 C-16.82195781 42.97820781 -12.85453508 43.26768322 -9.94140625 43.09765625 C-7.50390625 43.59765625 -7.50390625 43.59765625 -5.94140625 44.09765625 C-3.82688387 41.98313387 -4.49578976 37.52770199 -4.3203125 34.6640625 C-3.94140625 32.09765625 -3.94140625 32.09765625 -1.94140625 30.09765625 C0.66015625 29.68359375 0.66015625 29.68359375 3.68359375 29.47265625 C4.68648437 29.39789063 5.689375 29.323125 6.72265625 29.24609375 C7.87894531 29.17261719 7.87894531 29.17261719 9.05859375 29.09765625 C9.28010924 27.30757158 9.48541588 25.51547463 9.68359375 23.72265625 C9.79960937 22.72492187 9.915625 21.7271875 10.03515625 20.69921875 C10.04289062 19.84070313 10.050625 18.9821875 10.05859375 18.09765625 C7.47190599 15.51096849 6.08968354 15.75536319 2.49609375 15.53515625 C-2.84418403 15.19487847 -2.84418403 15.19487847 -3.94140625 14.09765625 C-4.04033565 11.93284828 -4.07111725 9.7647184 -4.06640625 7.59765625 C-4.07027344 5.81875 -4.07027344 5.81875 -4.07421875 4.00390625 C-3.89715742 0.1293877 -3.89715742 0.1293877 0 0 Z " fill="#FDFDFD" transform="translate(18.94140625,28.90234375)"/>
<path d="M0 0 C0.78761719 0.00257812 1.57523438 0.00515625 2.38671875 0.0078125 C3.55654297 0.00394531 3.55654297 0.00394531 4.75 0 C6.98673414 0.12781338 8.92688854 0.51367381 11.07421875 1.1328125 C11.12320312 2.05964844 11.1721875 2.98648438 11.22265625 3.94140625 C11.29742188 5.13894531 11.3721875 6.33648437 11.44921875 7.5703125 C11.51882812 8.76527344 11.5884375 9.96023437 11.66015625 11.19140625 C11.79679687 12.16207031 11.9334375 13.13273438 12.07421875 14.1328125 C12.73421875 14.4628125 13.39421875 14.7928125 14.07421875 15.1328125 C14.56921875 16.6178125 14.56921875 16.6178125 15.07421875 18.1328125 C15.69296875 18.4009375 16.31171875 18.6690625 16.94921875 18.9453125 C20.06002622 20.68370491 20.77590577 22.88703005 22.07421875 26.1328125 C22.07421875 27.4528125 22.07421875 28.7728125 22.07421875 30.1328125 C18.77421875 30.1328125 15.47421875 30.1328125 12.07421875 30.1328125 C11.98333984 31.52306641 11.98333984 31.52306641 11.890625 32.94140625 C11.80683594 34.13894531 11.72304688 35.33648437 11.63671875 36.5703125 C11.55550781 37.76527344 11.47429688 38.96023437 11.390625 40.19140625 C11.07421875 43.1328125 11.07421875 43.1328125 10.07421875 44.1328125 C8.28706231 44.34238133 6.49378106 44.50092866 4.69921875 44.6328125 C1.55401366 44.86517594 -0.92206032 45.13157219 -3.92578125 46.1328125 C-3.59578125 46.7928125 -3.26578125 47.4528125 -2.92578125 48.1328125 C-2.78801275 51.80296525 -2.88306164 55.45892598 -2.92578125 59.1328125 C-7.87578125 59.1328125 -12.82578125 59.1328125 -17.92578125 59.1328125 C-18.0234375 48.29296875 -18.0234375 48.29296875 -17.92578125 45.1328125 C-15.80633281 43.01336406 -11.83891008 43.30283947 -8.92578125 43.1328125 C-6.48828125 43.6328125 -6.48828125 43.6328125 -4.92578125 44.1328125 C-2.81125887 42.01829012 -3.48016476 37.56285824 -3.3046875 34.69921875 C-2.92578125 32.1328125 -2.92578125 32.1328125 -0.92578125 30.1328125 C1.67578125 29.71875 1.67578125 29.71875 4.69921875 29.5078125 C5.70210937 29.43304688 6.705 29.35828125 7.73828125 29.28125 C8.89457031 29.20777344 8.89457031 29.20777344 10.07421875 29.1328125 C10.29573424 27.34272783 10.50104088 25.55063088 10.69921875 23.7578125 C10.81523437 22.76007813 10.93125 21.76234375 11.05078125 20.734375 C11.05851562 19.87585938 11.06625 19.01734375 11.07421875 18.1328125 C8.48753099 15.54612474 7.10530854 15.79051944 3.51171875 15.5703125 C-1.82855903 15.23003472 -1.82855903 15.23003472 -2.92578125 14.1328125 C-3.02471065 11.96800453 -3.05549225 9.79987465 -3.05078125 7.6328125 C-3.05464844 5.85390625 -3.05464844 5.85390625 -3.05859375 4.0390625 C-2.88309946 0.19883445 -2.88309946 0.19883445 0 0 Z " fill="#FCFDFD" transform="translate(17.92578125,116.8671875)"/>
<path d="M0 0 C10.21060474 2.97497854 19.36510868 10.79125073 26 19 C27.08346298 21.51831935 27.13641297 22.54501783 26.34765625 25.17578125 C24.56945624 27.58279402 23.35042354 27.71526039 20.4375 28.1875 C17.42908246 28.50492822 17.42908246 28.50492822 15 30 C14.76572222 32.01594582 14.58663876 34.038474 14.4375 36.0625 C14.293125 38.021875 14.14875 39.98125 14 42 C9.05 42 4.1 42 -1 42 C-1 37.38 -1 32.76 -1 28 C5.93 27.01 5.93 27.01 13 26 C12.9690625 23.6178125 12.9690625 23.6178125 12.9375 21.1875 C12.89664697 18.04181692 12.99503148 16.01490557 14 13 C11.85423363 12.97314062 9.70837355 12.95366912 7.5625 12.9375 C5.77005859 12.92009766 5.77005859 12.92009766 3.94140625 12.90234375 C1.11126659 12.66098208 1.11126659 12.66098208 0 14 C-0.20888708 15.99603206 -0.36775477 17.99742941 -0.5 20 C-0.88888889 25.88888889 -0.88888889 25.88888889 -2 27 C-3.85287502 27.07226502 -5.70833878 27.0838122 -7.5625 27.0625 C-8.57441406 27.05347656 -9.58632812 27.04445313 -10.62890625 27.03515625 C-11.41136719 27.02355469 -12.19382813 27.01195313 -13 27 C-12.505 22.545 -12.505 22.545 -12 18 C-12.66 18 -13.32 18 -14 18 C-14.33 18.66 -14.66 19.32 -15 20 C-15.33 17.69 -15.66 15.38 -16 13 C-13.05613377 11.52806688 -10.62609964 12.15063827 -7.375 12.4375 C-6.18648437 12.53933594 -4.99796875 12.64117187 -3.7734375 12.74609375 C-2.85820312 12.82988281 -1.94296875 12.91367187 -1 13 C-1.01160156 12.22914062 -1.02320313 11.45828125 -1.03515625 10.6640625 C-1.04869141 9.15972656 -1.04869141 9.15972656 -1.0625 7.625 C-1.07410156 6.62726562 -1.08570313 5.62953125 -1.09765625 4.6015625 C-1 2 -1 2 0 0 Z " fill="#FCFCFC" transform="translate(148,46)"/>
<path d="M0 0 C0.66 0.33 1.32 0.66 2 1 C2.41920287 23.1532591 2.41920287 23.1532591 0 31 C-0.34160156 32.19882813 -0.68320313 33.39765625 -1.03515625 34.6328125 C-1.43563736 35.92326972 -1.84058858 37.21234817 -2.25 38.5 C-2.62640625 39.6859375 -3.0028125 40.871875 -3.390625 42.09375 C-5 45 -5 45 -8.171875 46.40625 C-9.10515625 46.6021875 -10.0384375 46.798125 -11 47 C-11.95261487 42.23692563 -12.08333357 37.8333472 -12 33 C-16.62 33.33 -21.24 33.66 -26 34 C-26 28.72 -26 23.44 -26 18 C-21.38 18 -16.76 18 -12 18 C-12 13.38 -12 8.76 -12 4 C-8.04 4 -4.08 4 0 4 C0 2.68 0 1.36 0 0 Z " fill="#EEEEEE" transform="translate(188,99)"/>
<path d="M0 0 C4.62 0 9.24 0 14 0 C14.09765625 10.83984375 14.09765625 10.83984375 14 14 C13 15 13 15 10.05859375 15.09765625 C6.70572917 15.06510417 3.35286458 15.03255208 0 15 C0 19.62 0 24.24 0 29 C4.62 29 9.24 29 14 29 C14 30.65 14 32.3 14 34 C16.97 34.66 19.94 35.32 23 36 C23 36.66 23 37.32 23 38 C21.98679688 37.79503906 20.97359375 37.59007812 19.9296875 37.37890625 C18.5781355 37.10671869 17.22657241 36.83458621 15.875 36.5625 C15.20984375 36.42779297 14.5446875 36.29308594 13.859375 36.15429688 C-0.04615246 33.35955851 -13.40538117 33.03498074 -27.15234375 36.79296875 C-28.06693359 36.89544922 -28.06693359 36.89544922 -29 37 C-29.66 36.34 -30.32 35.68 -31 35 C-30.67 34.34 -30.34 33.68 -30 33 C-30 31.68 -30 30.36 -30 29 C-29.15695313 29.02320312 -28.31390625 29.04640625 -27.4453125 29.0703125 C-26.34960938 29.08835937 -25.25390625 29.10640625 -24.125 29.125 C-23.03445312 29.14820312 -21.94390625 29.17140625 -20.8203125 29.1953125 C-17.8628949 29.30060534 -17.8628949 29.30060534 -16 27 C-15.57446839 24.37023476 -15.57446839 24.37023476 -15.4375 21.4375 C-15.09722222 16.09722222 -15.09722222 16.09722222 -14 15 C-10.89957227 14.67553663 -7.7979275 14.48665559 -4.6875 14.28125 C-2.08403248 14.29392201 -2.08403248 14.29392201 -1 13 C-0.76518307 10.81707226 -0.58636677 8.62796826 -0.4375 6.4375 C-0.293125 4.313125 -0.14875 2.18875 0 0 Z " fill="#ECEDEE" transform="translate(118,0)"/>
<path d="M0 0 C4.95 0 9.9 0 15 0 C15 4.95 15 9.9 15 15 C22.26980322 15.1702647 22.26980322 15.1702647 29 13 C29.23481693 10.81707226 29.41363323 8.62796826 29.5625 6.4375 C29.706875 4.313125 29.85125 2.18875 30 0 C34.62 0 39.24 0 44 0 C44.87890625 10.83984375 44.87890625 10.83984375 45 14 C43.12175109 15.87824891 39.96064724 15.39102397 37.4375 15.5625 C36.23996094 15.64628906 35.04242188 15.73007812 33.80859375 15.81640625 C32.88175781 15.87699219 31.95492187 15.93757813 31 16 C30.96261719 16.84304687 30.92523438 17.68609375 30.88671875 18.5546875 C30.82097656 19.65039062 30.75523437 20.74609375 30.6875 21.875 C30.60048828 23.51082031 30.60048828 23.51082031 30.51171875 25.1796875 C30.34285156 26.11039063 30.17398438 27.04109375 30 28 C25.18289257 31.21140495 20.65046231 29.60757659 15 29 C15 24.71 15 20.42 15 16 C9.35619781 14.89040068 9.35619781 14.89040068 5 15 C4.67 15.66 4.34 16.32 4 17 C3.01 16.67 2.02 16.34 1 16 C0.01 16 -0.98 16 -2 16 C-2.042721 14.33388095 -2.04063832 12.66617115 -2 11 C-1.67 10.67 -1.34 10.34 -1 10 C-0.76712992 8.31816052 -0.58735834 6.6287584 -0.4375 4.9375 C-0.293125 3.308125 -0.14875 1.67875 0 0 Z " fill="#FDFDFD" transform="translate(176,44)"/>
<path d="M0 0 C4.62 0 9.24 0 14 0 C14.09765625 10.83984375 14.09765625 10.83984375 14 14 C13 15 13 15 11.00390625 15.1328125 C10.19824219 15.13023438 9.39257812 15.12765625 8.5625 15.125 C7.75941406 15.12757812 6.95632812 15.13015625 6.12890625 15.1328125 C4 15 4 15 2 14 C0.9458482 17.16245541 0.68724328 19.86948218 0.4375 23.1875 C0.293125 25.105625 0.14875 27.02375 0 29 C-4.95 29 -9.9 29 -15 29 C-15 33.95 -15 38.9 -15 44 C-19.95 44 -24.9 44 -30 44 C-30 38.39 -30 32.78 -30 27 C-29.67 27.66 -29.34 28.32 -29 29 C-22.565 28.505 -22.565 28.505 -16 28 C-15.87625 26.040625 -15.7525 24.08125 -15.625 22.0625 C-15.4140625 18.72265625 -15.4140625 18.72265625 -15 16 C-10.73840618 13.86920309 -4.59236298 14.95497683 0 15 C0 10.05 0 5.1 0 0 Z " fill="#EDEDED" transform="translate(59,0)"/>
<path d="M0 0 C1.3503418 2.36083984 1.3503418 2.36083984 2.69921875 5.4609375 C3.42915039 7.12769531 3.42915039 7.12769531 4.17382812 8.828125 C4.67333984 9.99859375 5.17285156 11.1690625 5.6875 12.375 C6.19861328 13.53773438 6.70972656 14.70046875 7.23632812 15.8984375 C11 24.58151494 11 24.58151494 11 28 C3.08 28 -4.84 28 -13 28 C-15.97 20.74 -18.94 13.48 -22 6 C-18.87394057 3.91596038 -16.69121065 3.32531862 -13.0625 2.5 C-8.79949114 1.54402029 -8.79949114 1.54402029 -4.80859375 -0.15625 C-3 -1 -3 -1 0 0 Z " fill="#0371BE" transform="translate(158,123)"/>
<path d="M0 0 C2.31 0 4.62 0 7 0 C7.66 0.66 8.32 1.32 9 2 C8.0022242 4.99332739 7.2477975 5.94766315 5 8 C5.66 8 6.32 8 7 8 C7 7.34 7 6.68 7 6 C10.465 5.505 10.465 5.505 14 5 C14.02689216 6.47906892 14.04634621 7.95827483 14.0625 9.4375 C14.07410156 10.26121094 14.08570313 11.08492187 14.09765625 11.93359375 C14 14 14 14 13 15 C11.52351124 15.09823996 10.04224583 15.12973519 8.5625 15.125 C7.75941406 15.12757813 6.95632812 15.13015625 6.12890625 15.1328125 C4 15 4 15 2 14 C0.9458482 17.16245541 0.68724328 19.86948218 0.4375 23.1875 C0.293125 25.105625 0.14875 27.02375 0 29 C-4.95 29 -9.9 29 -15 29 C-15 33.95 -15 38.9 -15 44 C-19.95 44 -24.9 44 -30 44 C-30 38.39 -30 32.78 -30 27 C-29.67 27.66 -29.34 28.32 -29 29 C-22.565 28.505 -22.565 28.505 -16 28 C-15.87625 26.040625 -15.7525 24.08125 -15.625 22.0625 C-15.4140625 18.72265625 -15.4140625 18.72265625 -15 16 C-10.73840618 13.86920309 -4.59236298 14.95497683 0 15 C0 10.05 0 5.1 0 0 Z " fill="#EDEDED" transform="translate(59,176)"/>
<path d="M0 0 C-0.33 4.62 -0.66 9.24 -1 14 C-5.62 14 -10.24 14 -15 14 C-14.505 16.475 -14.505 16.475 -14 19 C-13.34 19 -12.68 19 -12 19 C-12.33 21.64 -12.66 24.28 -13 27 C-15.45966131 23.31050803 -17.2430361 19.4441546 -19.125 15.4375 C-19.49753906 14.65697266 -19.87007812 13.87644531 -20.25390625 13.07226562 C-20.60582031 12.32525391 -20.95773438 11.57824219 -21.3203125 10.80859375 C-21.64273926 10.12595459 -21.96516602 9.44331543 -22.29736328 8.73999023 C-23 7 -23 7 -23 5 C-30.92 5 -38.84 5 -47 5 C-46.34 4.67 -45.68 4.34 -45 4 C-44.67 2.35 -44.34 0.7 -44 -1 C-37.565 -1.495 -37.565 -1.495 -31 -2 C-30.67 -3.32 -30.34 -4.64 -30 -6 C-19.9405642 -8.74348249 -9.1827501 -3.82614587 0 0 Z " fill="#ECEDEE" transform="translate(148,45)"/>
<path d="M0 0 C0.94617188 0.2165625 1.89234375 0.433125 2.8671875 0.65625 C17.74080943 3.86480882 32.0597669 3.95637121 47 1 C47.66 1.99 48.32 2.98 49 4 C47.68 4 46.36 4 45 4 C45 4.66 45 5.32 45 6 C47.31 6 49.62 6 52 6 C52 6.33 52 6.66 52 7 C45.84765625 7.87890625 45.84765625 7.87890625 44 8 C43.505 7.505 43.505 7.505 43 7 C40.81360547 6.92741054 38.62499611 6.91626217 36.4375 6.9375 C35.23996094 6.94652344 34.04242188 6.95554688 32.80859375 6.96484375 C31.41833984 6.98224609 31.41833984 6.98224609 30 7 C30.04125 8.216875 30.0825 9.43375 30.125 10.6875 C30.25822603 14.6176679 29.61031764 15.9742059 28 20 C24.04 20.33 20.08 20.66 16 21 C15.67 25.62 15.34 30.24 15 35 C10.05 35 5.1 35 0 35 C-0.09765625 24.16015625 -0.09765625 24.16015625 0 21 C1 20 1 20 3.6875 19.9375 C5.89583333 19.97916667 8.10416667 20.02083333 10.3125 20.0625 C12.918828 20.31133058 12.918828 20.31133058 14 19 C14.23481693 16.81707226 14.41363323 14.62796826 14.5625 12.4375 C14.64628906 11.23996094 14.73007813 10.04242188 14.81640625 8.80859375 C14.87699219 7.88175781 14.93757813 6.95492187 15 6 C11.37 6 7.74 6 4 6 C4 5.34 4 4.68 4 4 C2.68 3.67 1.36 3.34 0 3 C0 2.01 0 1.02 0 0 Z " fill="#EEEFEE" transform="translate(88,185)"/>
<path d="M0 0 C6.44503976 5.73357433 10.50714791 15.54050482 12 24 C11.85858783 26.74047028 11.47594091 29.28713683 11 32 C7.04 32 3.08 32 -1 32 C-1 36.62 -1 41.24 -1 46 C-2.93875 46.185625 -4.8775 46.37125 -6.875 46.5625 C-8.51082031 46.71912109 -8.51082031 46.71912109 -10.1796875 46.87890625 C-13 47 -13 47 -15 46 C-15 50.95 -15 55.9 -15 61 C-17.40785992 57.7895201 -18.68197635 55.64991166 -20 52 C-23.3 52.99 -26.6 53.98 -30 55 C-30 54.34 -30 53.68 -30 53 C-31.65 52.67 -33.3 52.34 -35 52 C-32.18233003 50.52040161 -29.37658292 49.42115431 -26.375 48.375 C-17.00366215 44.62922927 -9.4810851 38.07454851 -5 29 C-1.01385857 19.48965613 -0.26092991 10.16322018 0 0 Z " fill="#E9EDEE" transform="translate(177,71)"/>
<path d="M0 0 C4.62 0 9.24 0 14 0 C14.33 2.31 14.66 4.62 15 7 C15.99 7.33 16.98 7.66 18 8 C17.50371094 8.4125 17.00742187 8.825 16.49609375 9.25 C9.30978082 15.35904781 3.37532535 21.59937533 -1 30 C-1.5775 29.814375 -2.155 29.62875 -2.75 29.4375 C-4.95746031 28.84088648 -4.95746031 28.84088648 -6.9375 29.5 C-9.54455791 30.13201404 -11.40892174 29.58053813 -14 29 C-14.19456705 27.04235617 -14.38044247 25.08384679 -14.5625 23.125 C-14.71912109 21.48917969 -14.71912109 21.48917969 -14.87890625 19.8203125 C-15 17 -15 17 -14 15 C-9.38 15 -4.76 15 0 15 C0 10.05 0 5.1 0 0 Z " fill="#EBECED" transform="translate(44,44)"/>
<path d="M0 0 C2.05859375 -0.36328125 2.05859375 -0.36328125 4.4375 -0.3125 C5.21996094 -0.30863281 6.00242188 -0.30476563 6.80859375 -0.30078125 C9 0 9 0 12 2 C12.328125 4.78515625 12.328125 4.78515625 12.25 8.0625 C12.23453125 9.14660156 12.2190625 10.23070312 12.203125 11.34765625 C12 14 12 14 11 15 C8.81360547 15.07258946 6.62499611 15.08373783 4.4375 15.0625 C2.64119141 15.04896484 2.64119141 15.04896484 0.80859375 15.03515625 C-0.11824219 15.02355469 -1.04507813 15.01195312 -2 15 C-1.97679687 15.91523437 -1.95359375 16.83046875 -1.9296875 17.7734375 C-1.90261719 19.55621094 -1.90261719 19.55621094 -1.875 21.375 C-1.85179687 22.55835937 -1.82859375 23.74171875 -1.8046875 24.9609375 C-2 28 -2 28 -4 30 C-7.0390625 30.1953125 -7.0390625 30.1953125 -10.625 30.125 C-11.81351563 30.10695313 -13.00203125 30.08890625 -14.2265625 30.0703125 C-15.14179688 30.04710938 -16.05703125 30.02390625 -17 30 C-17.02685412 27.68756208 -17.04632841 25.3750373 -17.0625 23.0625 C-17.07410156 21.77472656 -17.08570313 20.48695312 -17.09765625 19.16015625 C-17 16 -17 16 -16 15 C-13.81360547 14.92741054 -11.62499611 14.91626217 -9.4375 14.9375 C-7.64119141 14.95103516 -7.64119141 14.95103516 -5.80859375 14.96484375 C-4.88175781 14.97644531 -3.95492187 14.98804688 -3 15 C-2.95101562 14.16855469 -2.90203125 13.33710937 -2.8515625 12.48046875 C-2.77679688 11.39378906 -2.70203125 10.30710937 -2.625 9.1875 C-2.55539063 8.10855469 -2.48578125 7.02960937 -2.4140625 5.91796875 C-2 3 -2 3 0 0 Z " fill="#EDEDED" transform="translate(208,29)"/>
<path d="M0 0 C4.95 0 9.9 0 15 0 C15 4.95 15 9.9 15 15 C10.38 15.33 5.76 15.66 1 16 C0.855625 17.959375 0.71125 19.91875 0.5625 21.9375 C0.125 27.875 0.125 27.875 -1 29 C-3.18639453 29.07258946 -5.37500389 29.08373783 -7.5625 29.0625 C-9.35880859 29.04896484 -9.35880859 29.04896484 -11.19140625 29.03515625 C-12.11824219 29.02355469 -13.04507813 29.01195313 -14 29 C-15.19967104 23.99692745 -14.68034977 20.06482603 -14 15 C-7.565 14.505 -7.565 14.505 -1 14 C-0.67 9.38 -0.34 4.76 0 0 Z " fill="#FDFDFD" transform="translate(132,0)"/>
<path d="M0 0 C1.81293089 0.14037521 3.6253443 0.28744889 5.4375 0.4375 C6.95150391 0.55931641 6.95150391 0.55931641 8.49609375 0.68359375 C11 1 11 1 12 2 C12.28671723 3.80429123 12.50547961 5.61966002 12.6875 7.4375 C12.79449219 8.42621094 12.90148437 9.41492188 13.01171875 10.43359375 C13 13 13 13 11 15 C7.9609375 15.4140625 7.9609375 15.4140625 4.375 15.625 C1.219375 15.810625 1.219375 15.810625 -2 16 C-2 20.62 -2 25.24 -2 30 C-6.95 30 -11.9 30 -17 30 C-17 25.05 -17 20.1 -17 15 C-12.05 15 -7.1 15 -2 15 C-2.04125 13.081875 -2.0825 11.16375 -2.125 9.1875 C-2.25 3.375 -2.25 3.375 0 0 Z " fill="#FDFDFD" transform="translate(61,190)"/>
<path d="M0 0 C4.62 0 9.24 0 14 0 C14.87890625 10.83984375 14.87890625 10.83984375 15 14 C13.12175109 15.87824891 9.96064724 15.39102397 7.4375 15.5625 C6.23996094 15.64628906 5.04242188 15.73007813 3.80859375 15.81640625 C2.88175781 15.87699219 1.95492187 15.93757812 1 16 C0.96261719 16.84304687 0.92523438 17.68609375 0.88671875 18.5546875 C0.82097656 19.65039062 0.75523437 20.74609375 0.6875 21.875 C0.62949219 22.96554688 0.57148438 24.05609375 0.51171875 25.1796875 C0.34285156 26.11039063 0.17398438 27.04109375 0 28 C-3.5223857 30.34825713 -4.54116867 30.13467414 -8.625 29.6875 C-9.60726562 29.58824219 -10.58953125 29.48898438 -11.6015625 29.38671875 C-14 29 -14 29 -15 28 C-15.09873816 26.00200428 -15.12971799 24.00042842 -15.125 22 C-15.12757813 20.906875 -15.13015625 19.81375 -15.1328125 18.6875 C-15 16 -15 16 -14 15 C-10.89957227 14.67553663 -7.7979275 14.48665559 -4.6875 14.28125 C-2.08403248 14.29392201 -2.08403248 14.29392201 -1 13 C-0.76518307 10.81707226 -0.58636677 8.62796826 -0.4375 6.4375 C-0.293125 4.313125 -0.14875 2.18875 0 0 Z " fill="#FDFDFD" transform="translate(206,132)"/>
<path d="M0 0 C-0.33 0.66 -0.66 1.32 -1 2 C-2.32 1.67 -3.64 1.34 -5 1 C-5 1.66 -5 2.32 -5 3 C-6.10408203 3.27263672 -6.10408203 3.27263672 -7.23046875 3.55078125 C-12.32229129 4.86241321 -16.54773401 6.12757033 -21 9 C-21.66 8.67 -22.32 8.34 -23 8 C-24.81301758 12.43093198 -24.81301758 12.43093198 -24 17 C-24.33 17.66 -24.66 18.32 -25 19 C-26.32 19 -27.64 19 -29 19 C-30.28483596 22.85450788 -30.42211748 26.56524139 -30.71875 30.6015625 C-31 33 -31 33 -32 34 C-33.99799572 34.09873816 -35.99957158 34.12971799 -38 34.125 C-39.093125 34.12757812 -40.18625 34.13015625 -41.3125 34.1328125 C-44 34 -44 34 -45 33 C-45.98027271 28.68861539 -46.33192578 25.05801341 -45 20.8125 C-40.64931169 14.69434456 -34.57053611 10.81339981 -28 7.375 C-26.90328979 6.79806396 -26.90328979 6.79806396 -25.78442383 6.20947266 C-7.81048978 -2.89277399 -7.81048978 -2.89277399 0 0 Z " fill="#EBEDED" transform="translate(104,39)"/>
<path d="M0 0 C1.81293089 0.14037521 3.6253443 0.28744889 5.4375 0.4375 C6.95150391 0.55931641 6.95150391 0.55931641 8.49609375 0.68359375 C11 1 11 1 12 2 C12.28671723 3.80429123 12.50547961 5.61966002 12.6875 7.4375 C12.79449219 8.42621094 12.90148437 9.41492188 13.01171875 10.43359375 C13 13 13 13 11 15 C7.9609375 15.4140625 7.9609375 15.4140625 4.375 15.625 C1.219375 15.810625 1.219375 15.810625 -2 16 C-2 20.62 -2 25.24 -2 30 C-6.95 30 -11.9 30 -17 30 C-17 25.05 -17 20.1 -17 15 C-12.05 15 -7.1 15 -2 15 C-2.04125 13.081875 -2.0825 11.16375 -2.125 9.1875 C-2.25 3.375 -2.25 3.375 0 0 Z " fill="#FDFDFD" transform="translate(61,14)"/>
<path d="M0 0 C3.96 0.33 7.92 0.66 12 1 C12.9765625 7.8359375 12.9765625 7.8359375 13 10 C12.34 10.66 11.68 11.32 11 12 C10.525625 12.53625 10.05125 13.0725 9.5625 13.625 C8 15 8 15 5 15 C4.67 15.99 4.34 16.98 4 18 C4 17.01 4 16.02 4 15 C2.02 15.33 0.04 15.66 -2 16 C-1.98839844 16.92683594 -1.97679687 17.85367188 -1.96484375 18.80859375 C-1.95582031 20.00613281 -1.94679688 21.20367187 -1.9375 22.4375 C-1.92589844 23.63246094 -1.91429687 24.82742187 -1.90234375 26.05859375 C-2 29 -2 29 -3 30 C-4.78466793 30.26159628 -6.57882455 30.45999701 -8.375 30.625 C-9.35210937 30.72039062 -10.32921875 30.81578125 -11.3359375 30.9140625 C-14 31 -14 31 -17 30 C-17 25.05 -17 20.1 -17 15 C-12.05 15 -7.1 15 -2 15 C-2.04125 13.081875 -2.0825 11.16375 -2.125 9.1875 C-2.25 3.375 -2.25 3.375 0 0 Z " fill="#FDFDFD" transform="translate(61,102)"/>
<path d="M0 0 C0.33 0.99 0.66 1.98 1 3 C0.67 3.66 0.34 4.32 0 5 C0.99 5 1.98 5 3 5 C3.33 7.97 3.66 10.94 4 14 C6.88435938 14 9.42179168 13.87709444 12.25 13.5 C13.4875 13.335 14.725 13.17 16 13 C16.33 10.36 16.66 7.72 17 5 C20.3 5 23.6 5 27 5 C27.66 3.68 28.32 2.36 29 1 C29.99 0.67 30.98 0.34 32 0 C32 4.62 32 9.24 32 14 C27.71 14.66 23.42 15.32 19 16 C18.34 19.3 17.68 22.6 17 26 C6.79308402 22.36242888 -1.01349505 13.78202549 -7 5 C-7.74609375 2.671875 -7.74609375 2.671875 -8 1 C-5.29120665 -0.35439668 -2.99066732 -0.06501451 0 0 Z " fill="#F1F7F9" transform="translate(56,147)"/>
<path d="M0 0 C2.05078125 0.03255208 4.1015625 0.06510417 6.15234375 0.09765625 C6.15234375 5.04765625 6.15234375 9.99765625 6.15234375 15.09765625 C3.84234375 15.42765625 1.53234375 15.75765625 -0.84765625 16.09765625 C-2.39531175 19.19296724 -2.29175076 22.46433255 -2.56640625 25.8828125 C-2.84765625 28.09765625 -2.84765625 28.09765625 -3.84765625 29.09765625 C-6.2007918 29.17037366 -8.55599293 29.18136493 -10.91015625 29.16015625 C-12.20050781 29.15113281 -13.49085938 29.14210937 -14.8203125 29.1328125 C-15.81933594 29.12121094 -16.81835938 29.10960937 -17.84765625 29.09765625 C-17.70736206 26.95145365 -17.56027461 24.80569407 -17.41015625 22.66015625 C-17.32894531 21.46519531 -17.24773437 20.27023438 -17.1640625 19.0390625 C-16.84765625 16.09765625 -16.84765625 16.09765625 -15.84765625 15.09765625 C-13.66472851 14.86283932 -11.47562451 14.68402302 -9.28515625 14.53515625 C-8.08761719 14.45136719 -6.89007813 14.36757812 -5.65625 14.28125 C-4.72941406 14.22066406 -3.80257812 14.16007813 -2.84765625 14.09765625 C-2.85925781 13.17082031 -2.87085938 12.24398437 -2.8828125 11.2890625 C-2.89183594 10.09152344 -2.90085938 8.89398438 -2.91015625 7.66015625 C-2.92175781 6.46519531 -2.93335938 5.27023438 -2.9453125 4.0390625 C-2.81615523 0.14884541 -2.81615523 0.14884541 0 0 Z " fill="#EDEDED" transform="translate(222.84765625,131.90234375)"/>
<path d="M0 0 C2.05078125 0.03255208 4.1015625 0.06510417 6.15234375 0.09765625 C6.15234375 5.04765625 6.15234375 9.99765625 6.15234375 15.09765625 C3.84234375 15.42765625 1.53234375 15.75765625 -0.84765625 16.09765625 C-2.39531175 19.19296724 -2.29175076 22.46433255 -2.56640625 25.8828125 C-2.84765625 28.09765625 -2.84765625 28.09765625 -3.84765625 29.09765625 C-6.2007918 29.17037366 -8.55599293 29.18136493 -10.91015625 29.16015625 C-12.20050781 29.15113281 -13.49085938 29.14210938 -14.8203125 29.1328125 C-15.81933594 29.12121094 -16.81835938 29.10960938 -17.84765625 29.09765625 C-17.70736206 26.95145365 -17.56027461 24.80569407 -17.41015625 22.66015625 C-17.32894531 21.46519531 -17.24773437 20.27023438 -17.1640625 19.0390625 C-16.84765625 16.09765625 -16.84765625 16.09765625 -15.84765625 15.09765625 C-13.66472851 14.86283932 -11.47562451 14.68402302 -9.28515625 14.53515625 C-8.08761719 14.45136719 -6.89007813 14.36757813 -5.65625 14.28125 C-4.72941406 14.22066406 -3.80257812 14.16007812 -2.84765625 14.09765625 C-2.85925781 13.17082031 -2.87085938 12.24398437 -2.8828125 11.2890625 C-2.89183594 10.09152344 -2.90085938 8.89398438 -2.91015625 7.66015625 C-2.92175781 6.46519531 -2.93335938 5.27023438 -2.9453125 4.0390625 C-2.81615523 0.14884541 -2.81615523 0.14884541 0 0 Z " fill="#EDEDED" transform="translate(222.84765625,43.90234375)"/>
<path d="M0 0 C1.485 0.495 1.485 0.495 3 1 C3 4.96 3 8.92 3 13 C-1.62 13 -6.24 13 -11 13 C-10.979375 15.289375 -10.95875 17.57875 -10.9375 19.9375 C-10.91629132 22.29166332 -10.92728259 24.64686445 -11 27 C-12 28 -12 28 -14.43359375 28.0625 C-16.43359488 28.02088749 -18.43359488 27.97922097 -20.43359375 27.9375 C-22.98987685 27.81772784 -22.98987685 27.81772784 -25 29 C-25.46523063 30.89533342 -25.46523063 30.89533342 -25.625 33.0625 C-25.74875 34.361875 -25.8725 35.66125 -26 37 C-26.33 37 -26.66 37 -27 37 C-27 34.36 -27 31.72 -27 29 C-28.32 28.67 -29.64 28.34 -31 28 C-29.68 27.67 -28.36 27.34 -27 27 C-26.67 25.02 -26.34 23.04 -26 21 C-27.32 20.67 -28.64 20.34 -30 20 C-28.44152344 19.27296875 -28.44152344 19.27296875 -26.8515625 18.53125 C-16.55857959 13.62441753 -8.04789675 8.1929039 0 0 Z " fill="#E9EDED" transform="translate(173,163)"/>
<path d="M0 0 C4.95 0 9.9 0 15 0 C15 4.95 15 9.9 15 15 C10.38 15.33 5.76 15.66 1 16 C0.67 19.96 0.34 23.92 0 28 C-5.875 30 -5.875 30 -7 30 C-7 25.38 -7 20.76 -7 16 C-5.02 15.34 -3.04 14.68 -1 14 C-0.67 9.38 -0.34 4.76 0 0 Z " fill="#FDFDFD" transform="translate(44,88)"/>
<path d="M0 0 C4.54101562 0.24414062 4.54101562 0.24414062 9.08203125 0.48828125 C9.08203125 5.43828125 9.08203125 10.38828125 9.08203125 15.48828125 C4.13203125 15.48828125 -0.81796875 15.48828125 -5.91796875 15.48828125 C-5.91796875 20.10828125 -5.91796875 24.72828125 -5.91796875 29.48828125 C-8.22796875 30.14828125 -10.53796875 30.80828125 -12.91796875 31.48828125 C-12.88640197 24.92239193 -11.34141779 19.25851723 -9.04296875 13.17578125 C-8.78628418 12.49451172 -8.52959961 11.81324219 -8.26513672 11.11132812 C-4.19395697 0.70180003 -4.19395697 0.70180003 0 0 Z " fill="#EAEDEE" transform="translate(49.91796875,72.51171875)"/>
<path d="M0 0 C0.66 0.33 1.32 0.66 2 1 C1.67 5.95 1.34 10.9 1 16 C-3.95 16 -8.9 16 -14 16 C-14.09765625 5.16015625 -14.09765625 5.16015625 -14 2 C-13 1 -13 1 -10.3125 0.9375 C-8.10416667 0.97916667 -5.89583333 1.02083333 -3.6875 1.0625 C-1.081172 1.31133058 -1.081172 1.31133058 0 0 Z " fill="#FDFDFD" transform="translate(205,204)"/>
<path d="M0 0 C4.95 0 9.9 0 15 0 C15 4.95 15 9.9 15 15 C10.05 15 5.1 15 0 15 C0 10.05 0 5.1 0 0 Z " fill="#FDFDFD" transform="translate(44,176)"/>
<path d="M0 0 C4.95 0 9.9 0 15 0 C15 4.95 15 9.9 15 15 C10.05 15 5.1 15 0 15 C0 10.05 0 5.1 0 0 Z " fill="#FDFDFD" transform="translate(44,0)"/>
<path d="M0 0 C4.95 0 9.9 0 15 0 C15.29296875 9.9609375 15.29296875 9.9609375 15 13 C10.31489253 16.12340498 5.57484993 15.64033226 0 16 C0 10.72 0 5.44 0 0 Z " fill="#FDFDFD" transform="translate(191,0)"/>
<path d="M0 0 C4.62 0 9.24 0 14 0 C14.87890625 10.83984375 14.87890625 10.83984375 15 14 C14 15 14 15 11.3125 15.0625 C9.10416667 15.02083333 6.89583333 14.97916667 4.6875 14.9375 C2.081172 14.68866942 2.081172 14.68866942 1 16 C0.76924918 17.34747084 0.58846937 18.70377565 0.4375 20.0625 C0.293125 21.361875 0.14875 22.66125 0 24 C-0.33 24 -0.66 24 -1 24 C-1 21.36 -1 18.72 -1 16 C-1.66 15.67 -2.32 15.34 -3 15 C-2.01 15 -1.02 15 0 15 C0 10.05 0 5.1 0 0 Z " fill="#EDEDED" transform="translate(147,0)"/>
<path d="M0 0 C4.95 0 9.9 0 15 0 C15.1953125 9.9609375 15.1953125 9.9609375 15 13 C13 15 13 15 10.21484375 15.23046875 C9.13332031 15.21628906 8.05179688 15.20210937 6.9375 15.1875 C5.31134766 15.17783203 5.31134766 15.17783203 3.65234375 15.16796875 C1 15 1 15 0 14 C-0.14426614 9.33154772 -0.04208415 4.67134047 0 0 Z " fill="#FDFDFD" transform="translate(103,0)"/>
<path d="M0 0 C4.95 0 9.9 0 15 0 C15 5.28 15 10.56 15 16 C14.01 15.34 13.02 14.68 12 14 C10.65835921 14.2981424 9.32676508 14.64141484 8 15 C5.32684321 15.09748556 2.67623716 15.04460395 0 15 C0 10.05 0 5.1 0 0 Z " fill="#EDEDED" transform="translate(176,176)"/>
<path d="M0 0 C0.66 0.33 1.32 0.66 2 1 C1.34 5.95 0.68 10.9 0 16 C-4.29 16 -8.58 16 -13 16 C-14.37252731 13.25494537 -14.13229255 10.99672588 -14.125 7.9375 C-14.12757813 6.85339844 -14.13015625 5.76929688 -14.1328125 4.65234375 C-14 2 -14 2 -13 1 C-9.89186744 0.92771785 -6.79573128 1.00385413 -3.6875 1.0625 C-1.081172 1.31133058 -1.081172 1.31133058 0 0 Z " fill="#FDFDFD" transform="translate(205,28)"/>
<path d="M0 0 C5.52677733 -0.19392201 9.75614911 0.2520497 15 2 C15.33 6.29 15.66 10.58 16 15 C10.72 15 5.44 15 0 15 C0 10.05 0 5.1 0 0 Z " fill="#EDEDED" transform="translate(0,117)"/>
<path d="M0 0 C5.52677733 -0.19392201 9.75614911 0.2520497 15 2 C15.33 6.29 15.66 10.58 16 15 C10.72 15 5.44 15 0 15 C0 10.05 0 5.1 0 0 Z " fill="#EDEDED" transform="translate(0,29)"/>
<path d="M0 0 C5.52677733 -0.19392201 9.75614911 0.2520497 15 2 C15 6.29 15 10.58 15 15 C10.05 15 5.1 15 0 15 C0 10.05 0 5.1 0 0 Z " fill="#EEEEEE" transform="translate(0,205)"/>
<path d="M0 0 C1.32 0 2.64 0 4 0 C4 0.66 4 1.32 4 2 C4.66 2 5.32 2 6 2 C6.10807131 3.93627769 6.1856225 5.87427756 6.25 7.8125 C6.29640625 8.89144531 6.3428125 9.97039062 6.390625 11.08203125 C6 14 6 14 4.34375 15.9375 C-0.09586577 17.95012582 -4.40322341 16.03974709 -9 15 C-9 10.38 -9 5.76 -9 1 C-7.700625 1.020625 -6.40125 1.04125 -5.0625 1.0625 C-3.70834367 1.08399454 -2.35243917 1.07148199 -1 1 C-0.67 0.67 -0.34 0.34 0 0 Z " fill="#FDFDFD" transform="translate(9,190)"/>
<path d="M0 0 C1.32 0 2.64 0 4 0 C4 0.66 4 1.32 4 2 C4.66 2 5.32 2 6 2 C6.10807131 3.93627769 6.1856225 5.87427756 6.25 7.8125 C6.29640625 8.89144531 6.3428125 9.97039062 6.390625 11.08203125 C6 14 6 14 4.34375 15.9375 C-0.09586577 17.95012582 -4.40322341 16.03974709 -9 15 C-9 10.38 -9 5.76 -9 1 C-7.700625 1.020625 -6.40125 1.04125 -5.0625 1.0625 C-3.70834367 1.08399454 -2.35243917 1.07148199 -1 1 C-0.67 0.67 -0.34 0.34 0 0 Z " fill="#FDFDFD" transform="translate(9,102)"/>
<path d="M0 0 C1.32 0 2.64 0 4 0 C4 0.66 4 1.32 4 2 C4.66 2 5.32 2 6 2 C6.10807131 3.93627769 6.1856225 5.87427756 6.25 7.8125 C6.29640625 8.89144531 6.3428125 9.97039063 6.390625 11.08203125 C6 14 6 14 4.34375 15.9375 C-0.09586577 17.95012582 -4.40322341 16.03974709 -9 15 C-9 10.38 -9 5.76 -9 1 C-7.700625 1.020625 -6.40125 1.04125 -5.0625 1.0625 C-3.70834367 1.08399454 -2.35243917 1.07148199 -1 1 C-0.67 0.67 -0.34 0.34 0 0 Z " fill="#FDFDFD" transform="translate(9,14)"/>
<path d="M0 0 C4.95 0 9.9 0 15 0 C15.14285714 9.57142857 15.14285714 9.57142857 14 14 C12.35 14 10.7 14 9 14 C8.67 14.66 8.34 15.32 8 16 C5.36 15.67 2.72 15.34 0 15 C0 10.05 0 5.1 0 0 Z " fill="#EEEEEE" transform="translate(0,0)"/>
<path d="M0 0 C0 4.29 0 8.58 0 13 C-5.52324893 15.76162446 -8.92028657 14.72377541 -15 14 C-15 9.38 -15 4.76 -15 0 C-9.62374766 -0.84888195 -5.34629602 -1.0024305 0 0 Z " fill="#FDFDFD" transform="translate(103,191)"/>
<path d="M0 0 C4.95 0 9.9 0 15 0 C15.08333357 4.8333472 14.95261487 9.23692563 14 14 C12.35 14 10.7 14 9 14 C8.67 14.66 8.34 15.32 8 16 C5.36 15.67 2.72 15.34 0 15 C0 10.05 0 5.1 0 0 Z " fill="#EDEDED" transform="translate(0,176)"/>
<path d="M0 0 C4.62 0 9.24 0 14 0 C14 4.95 14 9.9 14 15 C9.38 15.33 4.76 15.66 0 16 C0 10.72 0 5.44 0 0 Z " fill="#FDFDFC" transform="translate(162,117)"/>
<path d="M0 0 C0 0.66 0 1.32 0 2 C0.66 2 1.32 2 2 2 C2.10815225 3.76949095 2.18566083 5.54087487 2.25 7.3125 C2.29640625 8.29863281 2.3428125 9.28476562 2.390625 10.30078125 C2 13 2 13 0.34375 14.875 C-4.01059238 16.96508434 -8.32692859 15.61194983 -13 15 C-13 10.38 -13 5.76 -13 1 C-3.375 0 -3.375 0 0 0 Z " fill="#FDFDFD" transform="translate(101,14)"/>
<path d="M0 0 C0.66 0.33 1.32 0.66 2 1 C2 7.6 2 14.2 2 21 C1.34 21 0.68 21 0 21 C-0.33 20.01 -0.66 19.02 -1 18 C-4.63 18 -8.26 18 -12 18 C-12 13.38 -12 8.76 -12 4 C-8.04 4 -4.08 4 0 4 C0 2.68 0 1.36 0 0 Z " fill="#F7FBFB" transform="translate(188,99)"/>
<path d="M0 0 C1.48693359 0.00386719 1.48693359 0.00386719 3.00390625 0.0078125 C3.99261719 0.00523437 4.98132813 0.00265625 6 0 C8.56640625 0.1328125 8.56640625 0.1328125 10.56640625 1.1328125 C10.56640625 5.7528125 10.56640625 10.3728125 10.56640625 15.1328125 C5.94640625 15.1328125 1.32640625 15.1328125 -3.43359375 15.1328125 C-3.53125 4.29296875 -3.53125 4.29296875 -3.43359375 1.1328125 C-2.43359375 0.1328125 -2.43359375 0.1328125 0 0 Z " fill="#FEFEFE" transform="translate(106.43359375,204.8671875)"/>
<path d="M0 0 C3.35286458 0.03255208 6.70572917 0.06510417 10.05859375 0.09765625 C10.05859375 5.04765625 10.05859375 9.99765625 10.05859375 15.09765625 C5.43859375 15.09765625 0.81859375 15.09765625 -3.94140625 15.09765625 C-4.0390625 4.2578125 -4.0390625 4.2578125 -3.94140625 1.09765625 C-2.94140625 0.09765625 -2.94140625 0.09765625 0 0 Z " fill="#FEFEFE" transform="translate(18.94140625,204.90234375)"/>
<path d="M0 0 C3.96 0 7.92 0 12 0 C12.05386629 2.12472576 12.09273071 4.24983652 12.125 6.375 C12.14820312 7.55835937 12.17140625 8.74171875 12.1953125 9.9609375 C12 13 12 13 10 15 C6.9609375 15.1953125 6.9609375 15.1953125 3.375 15.125 C2.18648438 15.10695313 0.99796875 15.08890625 -0.2265625 15.0703125 C-1.14179687 15.04710938 -2.05703125 15.02390625 -3 15 C-3.33 15.66 -3.66 16.32 -4 17 C-3.71561048 15.10306139 -3.42216208 13.20747973 -3.125 11.3125 C-2.96257812 10.25675781 -2.80015625 9.20101562 -2.6328125 8.11328125 C-2 5 -2 5 0 0 Z " fill="#FAFBFB" transform="translate(106,88)"/>
<path d="M0 0 C4.62 0 9.24 0 14 0 C14.77916092 5.02125926 15.13016601 8.97703996 14 14 C12.35 14 10.7 14 9 14 C8.67 14.66 8.34 15.32 8 16 C5.36 15.67 2.72 15.34 0 15 C0 10.05 0 5.1 0 0 Z " fill="#EDEDED" transform="translate(0,88)"/>
<path d="M0 0 C4.29 0 8.58 0 13 0 C13 4.95 13 9.9 13 15 C8.38 15 3.76 15 -1 15 C-1.125 3.375 -1.125 3.375 0 0 Z " fill="#EDEDED" transform="translate(207,205)"/>
<path d="M0 0 C1.08410156 0.00257813 2.16820312 0.00515625 3.28515625 0.0078125 C4.90744141 0.00394531 4.90744141 0.00394531 6.5625 0 C9.34765625 0.1328125 9.34765625 0.1328125 11.34765625 1.1328125 C11.37452178 3.11190648 11.39399 5.09110221 11.41015625 7.0703125 C11.42175781 8.17246094 11.43335938 9.27460938 11.4453125 10.41015625 C11.34765625 13.1328125 11.34765625 13.1328125 10.34765625 14.1328125 C8.16126172 14.20540196 5.97265236 14.21655033 3.78515625 14.1953125 C1.98884766 14.18177734 1.98884766 14.18177734 0.15625 14.16796875 C-0.77058594 14.15636719 -1.69742187 14.14476562 -2.65234375 14.1328125 C-3.64528003 11.15400365 -3.78640786 9.11680052 -3.77734375 6.0078125 C-3.77992187 5.11835938 -3.7825 4.22890625 -3.78515625 3.3125 C-3.58856071 0.08602028 -3.25953304 0.16321668 0 0 Z " fill="#FDFDFD" transform="translate(32.65234375,190.8671875)"/>
<path d="M0 0 C1.08410156 0.00257812 2.16820312 0.00515625 3.28515625 0.0078125 C4.90744141 0.00394531 4.90744141 0.00394531 6.5625 0 C9.34765625 0.1328125 9.34765625 0.1328125 11.34765625 1.1328125 C11.37452178 3.11190648 11.39399 5.09110221 11.41015625 7.0703125 C11.42175781 8.17246094 11.43335938 9.27460938 11.4453125 10.41015625 C11.34765625 13.1328125 11.34765625 13.1328125 10.34765625 14.1328125 C8.16126172 14.20540196 5.97265236 14.21655033 3.78515625 14.1953125 C1.98884766 14.18177734 1.98884766 14.18177734 0.15625 14.16796875 C-0.77058594 14.15636719 -1.69742187 14.14476562 -2.65234375 14.1328125 C-3.64528003 11.15400365 -3.78640786 9.11680052 -3.77734375 6.0078125 C-3.77992187 5.11835938 -3.7825 4.22890625 -3.78515625 3.3125 C-3.58856071 0.08602028 -3.25953304 0.16321668 0 0 Z " fill="#FDFDFD" transform="translate(32.65234375,14.8671875)"/>
<path d="M0 0 C2.95749791 3.46741134 5.07848152 6.86873527 7 11 C6.34 11 5.68 11 5 11 C4.38705078 12.22783203 4.38705078 12.22783203 3.76171875 13.48046875 C2.88966797 14.72763672 2.88966797 14.72763672 2 16 C-0.91796875 16.48828125 -0.91796875 16.48828125 -4.1875 16.3125 C-5.27417969 16.26738281 -6.36085938 16.22226563 -7.48046875 16.17578125 C-8.31191406 16.11777344 -9.14335937 16.05976563 -10 16 C-10.19456705 14.04235617 -10.38044247 12.08384679 -10.5625 10.125 C-10.66691406 9.03445312 -10.77132813 7.94390625 -10.87890625 6.8203125 C-11 4 -11 4 -10 2 C-6.7 2 -3.4 2 0 2 C0 1.34 0 0.68 0 0 Z " fill="#EBECED" transform="translate(40,145)"/>
<path d="M0 0 C1 1 1 1 1.09765625 4.16015625 C1.04882812 9.58007812 1.04882812 9.58007812 1 15 C-3.62 15 -8.24 15 -13 15 C-13.48098859 4.89923954 -13.48098859 4.89923954 -11.5625 1.3125 C-7.79366667 -0.61787805 -4.16072813 -0.51481626 0 0 Z " fill="#EDEDED" transform="translate(160,205)"/>
<path d="M0 0 C1.47906892 -0.02689216 2.95827483 -0.04634621 4.4375 -0.0625 C5.26121094 -0.07410156 6.08492187 -0.08570312 6.93359375 -0.09765625 C9 0 9 0 10 1 C10.07298002 2.60264114 10.08363831 4.20833732 10.0625 5.8125 C10.05347656 6.68519531 10.04445312 7.55789062 10.03515625 8.45703125 C10.02355469 9.29621094 10.01195312 10.13539062 10 11 C10 12.32 10 13.64 10 15 C8.421875 16.1796875 8.421875 16.1796875 6 17 C2.765625 15.8828125 2.765625 15.8828125 -0.75 14.125 C-1.92046875 13.55007812 -3.0909375 12.97515625 -4.296875 12.3828125 C-5.18890625 11.92648438 -6.0809375 11.47015625 -7 11 C-6.01 10.67 -5.02 10.34 -4 10 C-4 7.03 -4 4.06 -4 1 C-3.01 1.33 -2.02 1.66 -1 2 C-0.67 1.34 -0.34 0.68 0 0 Z " fill="#E9ECED" transform="translate(151,29)"/>
<path d="M0 0 C2.5 2.5 2.5 2.5 5 5 C6.423125 6.2065625 6.423125 6.2065625 7.875 7.4375 C8.926875 8.7059375 8.926875 8.7059375 10 10 C9.67 11.98 9.34 13.96 9 16 C4.05 16 -0.9 16 -6 16 C-6.125 4.25 -6.125 4.25 -5 2 C-3.35 2 -1.7 2 0 2 C0 1.34 0 0.68 0 0 Z " fill="#EAECED" transform="translate(50,160)"/>
<path d="M0 0 C1.7015625 0.2784375 1.7015625 0.2784375 3.4375 0.5625 C4.283125 0.706875 5.12875 0.85125 6 1 C4.453125 2.984375 4.453125 2.984375 2 5 C-1.453125 5.390625 -1.453125 5.390625 -5.25 5.25 C-6.51328125 5.21390625 -7.7765625 5.1778125 -9.078125 5.140625 C-10.52445313 5.07101563 -10.52445313 5.07101563 -12 5 C-12.33 6.32 -12.66 7.64 -13 9 C-10.36 9.33 -7.72 9.66 -5 10 C-5 10.33 -5 10.66 -5 11 C-12.92 11 -20.84 11 -29 11 C-28.34 10.67 -27.68 10.34 -27 10 C-26.67 8.35 -26.34 6.7 -26 5 C-19.565 4.505 -19.565 4.505 -13 4 C-12.67 2.68 -12.34 1.36 -12 0 C-7.71389466 -1.16893782 -4.34882919 -0.76295249 0 0 Z " fill="#E7ECEF" transform="translate(130,39)"/>
<path d="M0 0 C0.680625 0.37125 1.36125 0.7425 2.0625 1.125 C5.94635623 2.28189335 8.22585311 1.28178574 12 0 C12.66 0 13.32 0 14 0 C14 0.66 14 1.32 14 2 C14.66 2 15.32 2 16 2 C16 6.29 16 10.58 16 15 C14.68 15.33 13.36 15.66 12 16 C11.34 16.66 10.68 17.32 10 18 C6.15007597 12.16710141 2.47637204 6.55510245 0 0 Z " fill="#EAEDEE" transform="translate(175,58)"/>
<path d="M0 0 C-0.66666667 1.33333333 -1.33333333 2.66666667 -2 4 C-2.93392578 3.69255859 -2.93392578 3.69255859 -3.88671875 3.37890625 C-11.89961748 1.04320774 -19.56202661 0.53873014 -27.87573242 0.29125977 C-29.19214722 0.25150024 -29.19214722 0.25150024 -30.53515625 0.2109375 C-31.322854 0.19337402 -32.11055176 0.17581055 -32.92211914 0.15771484 C-35 0 -35 0 -38 -1 C-39.89952346 -0.91478259 -41.79663573 -0.76270916 -43.6875 -0.5625 C-44.68136719 -0.46066406 -45.67523438 -0.35882813 -46.69921875 -0.25390625 C-47.45847656 -0.17011719 -48.21773438 -0.08632813 -49 0 C-48.01 -0.33 -47.02 -0.66 -46 -1 C-46 -1.66 -46 -2.32 -46 -3 C-33.38980948 -9.30509526 -12.6443921 -4.49491528 0 0 Z " fill="#1773B8" transform="translate(142,38)"/>
<path d="M0 0 C1.98 0 3.96 0 6 0 C5.67 1.65 5.34 3.3 5 5 C-2.99527432 8.31170379 -10.22698012 8.41976537 -18.8125 8.3125 C-20.77606445 8.31733398 -20.77606445 8.31733398 -22.77929688 8.32226562 C-33.3128198 8.2627542 -33.3128198 8.2627542 -37 6 C-36.38125 5.71125 -35.7625 5.4225 -35.125 5.125 C-32.86674235 4.06279958 -32.86674235 4.06279958 -31 2 C-29.01178687 1.60235737 -27.01055661 1.26224651 -25 1 C-25 1.99 -25 2.98 -25 4 C-22.33326258 4.02727345 -19.66681131 4.04696948 -17 4.0625 C-16.25621094 4.07087891 -15.51242188 4.07925781 -14.74609375 4.08789062 C-9.73851156 4.10966272 -4.95720968 3.71541549 0 3 C0 2.01 0 1.02 0 0 Z " fill="#F7F7F4" transform="translate(149,101)"/>
<path d="M0 0 C1.14662109 -0.03867188 1.14662109 -0.03867188 2.31640625 -0.078125 C4.93473244 0.32691994 5.78268701 1.24096187 7.4375 3.25 C6.4475 3.25 5.4575 3.25 4.4375 3.25 C5.0975 4.57 5.7575 5.89 6.4375 7.25 C-0.12303812 13.12892377 -0.12303812 13.12892377 -3.65234375 13.42578125 C-5.5625 13.125 -5.5625 13.125 -8.5625 12.25 C-8.5625 8.62 -8.5625 4.99 -8.5625 1.25 C-5.4522946 0.47244865 -3.13572083 0.06366946 0 0 Z " fill="#FBFCFB" transform="translate(155.5625,160.75)"/>
<path d="M0 0 C0.38218767 1.65614657 0.71395102 3.32457024 1 5 C0 6 0 6 -2.94140625 6.09765625 C-4.73384766 6.08025391 -4.73384766 6.08025391 -6.5625 6.0625 C-8.35880859 6.04896484 -8.35880859 6.04896484 -10.19140625 6.03515625 C-11.11824219 6.02355469 -12.04507813 6.01195312 -13 6 C-13.33 7.32 -13.66 8.64 -14 10 C-14.66 9.67 -15.32 9.34 -16 9 C-16.33 9.33 -16.66 9.66 -17 10 C-19.00092398 9.70954329 -21.00191402 9.4147866 -22.9921875 9.05859375 C-25.32211746 8.79676938 -25.32211746 8.79676938 -28 11 C-27.649375 10.38125 -27.29875 9.7625 -26.9375 9.125 C-26.628125 8.42375 -26.31875 7.7225 -26 7 C-26.33 6.34 -26.66 5.68 -27 5 C-24.45986091 4.1824493 -21.91806769 3.37084814 -19.375 2.5625 C-18.66214844 2.33240234 -17.94929688 2.10230469 -17.21484375 1.86523438 C-11.3374998 0.00497414 -6.13053742 -1.62278932 0 0 Z " fill="#EAEEEF" transform="translate(131,126)"/>
<path d="M0 0 C6.15234375 0.5859375 6.15234375 0.5859375 8 1 C8.33 1.66 8.66 2.32 9 3 C7.6078125 3.1546875 7.6078125 3.1546875 6.1875 3.3125 C2.82700023 4.03731368 2.02574278 4.36594378 0 7 C-0.53735045 9.20527801 -0.53735045 9.20527801 -0.625 11.5625 C-0.92 15.84 -0.92 15.84 -2 18 C-5 17 -5 17 -6.6875 14.125 C-8 11 -8 11 -8 8 C-11.3 8 -14.6 8 -18 8 C-16.94921875 5.51953125 -16.94921875 5.51953125 -15 3 C-11.64453125 2.51171875 -11.64453125 2.51171875 -7.8125 2.6875 C-6.54019531 2.73261719 -5.26789063 2.77773438 -3.95703125 2.82421875 C-2.98121094 2.88222656 -2.00539062 2.94023438 -1 3 C-0.67 2.01 -0.34 1.02 0 0 Z " fill="#F8FBFA" transform="translate(133,41)"/>
<path d="M0 0 C2.58410205 3.14487493 4.13785682 6.30705841 5.6875 10.0625 C6.12449219 11.10535156 6.56148437 12.14820313 7.01171875 13.22265625 C8 16 8 16 8 19 C0.08 19 -7.84 19 -16 19 C-16.66 16.69 -17.32 14.38 -18 12 C-17.01 12.33 -16.02 12.66 -15 13 C-15.33 13.66 -15.66 14.32 -16 15 C-11.05 15 -6.1 15 -1 15 C-0.67 13.68 -0.34 12.36 0 11 C0.66 11 1.32 11 2 11 C1.67 9.9275 1.34 8.855 1 7.75 C0 4 0 4 0 0 Z " fill="#0470B5" transform="translate(161,132)"/>
<path d="M0 0 C8.25 0.33 16.5 0.66 25 1 C25 1.33 25 1.66 25 2 C22.36 2 19.72 2 17 2 C17.020625 3.299375 17.04125 4.59875 17.0625 5.9375 C17.08399454 7.29165633 17.07148199 8.64756083 17 10 C15.44643726 11.55356274 13.77383198 11.34344431 11.625 11.5625 C10.83351563 11.64628906 10.04203125 11.73007813 9.2265625 11.81640625 C7 12 7 12 4 12 C3 11 3 11 2.90234375 8.93359375 C2.91974609 7.69802734 2.91974609 7.69802734 2.9375 6.4375 C2.94652344 5.61121094 2.95554688 4.78492188 2.96484375 3.93359375 C2.97644531 3.29550781 2.98804688 2.65742188 3 2 C2.01 2 1.02 2 0 2 C0 1.34 0 0.68 0 0 Z " fill="#EEEEEF" transform="translate(56,150)"/>
<path d="M0 0 C1.38594404 4.67074055 1.06372054 9.15723892 1 14 C-5.435 14.495 -5.435 14.495 -12 15 C-13.60725635 11.78548731 -13.05748185 8.56387464 -13 5 C-10.03 5 -7.06 5 -4 5 C-3.34 3.68 -2.68 2.36 -2 1 C-1.34 0.67 -0.68 0.34 0 0 Z " fill="#FEFEFD" transform="translate(87,147)"/>
<path d="M0 0 C1.65 0 3.3 0 5 0 C5.765625 2.66796875 5.765625 2.66796875 6 6 C4.234375 8.73828125 4.234375 8.73828125 1.75 11.3125 C0.94046875 12.17488281 0.1309375 13.03726563 -0.703125 13.92578125 C-3 16 -3 16 -6 17 C-8.10633718 15.29171079 -8.93801608 14.47851584 -9.29296875 11.73828125 C-9.25816406 10.93777344 -9.22335938 10.13726562 -9.1875 9.3125 C-9.16042969 8.50425781 -9.13335937 7.69601563 -9.10546875 6.86328125 C-9.07066406 6.24839844 -9.03585938 5.63351563 -9 5 C-6.36 5 -3.72 5 -1 5 C-0.67 3.35 -0.34 1.7 0 0 Z " fill="#F7FBFA" transform="translate(171,147)"/>
<path d="M0 0 C4.62 0 9.24 0 14 0 C14.28571429 10.71428571 14.28571429 10.71428571 12 15 C11.57589844 14.62488281 11.15179688 14.24976563 10.71484375 13.86328125 C6.63482662 10.30335421 2.4486524 7.08682003 -2 4 C-1.34 3.67 -0.68 3.34 0 3 C0 2.01 0 1.02 0 0 Z " fill="#EAECEE" transform="translate(162,44)"/>
<path d="M0 0 C1.93166016 0.01740234 1.93166016 0.01740234 3.90234375 0.03515625 C5.19269531 0.04417969 6.48304687 0.05320313 7.8125 0.0625 C8.81152344 0.07410156 9.81054688 0.08570313 10.83984375 0.09765625 C10.83984375 1.74765625 10.83984375 3.39765625 10.83984375 5.09765625 C12.15984375 5.42765625 13.47984375 5.75765625 14.83984375 6.09765625 C3.97464046 9.03230923 -5.98580682 9.43972817 -17.16015625 9.09765625 C-17.16015625 8.76765625 -17.16015625 8.43765625 -17.16015625 8.09765625 C-12.87015625 8.09765625 -8.58015625 8.09765625 -4.16015625 8.09765625 C-4.18078125 6.96328125 -4.20140625 5.82890625 -4.22265625 4.66015625 C-4.14314531 0.12803292 -4.14314531 0.12803292 0 0 Z " fill="#E7EBED" transform="translate(121.16015625,175.90234375)"/>
<path d="M0 0 C0 4.95 0 9.9 0 15 C-4.455 15.495 -4.455 15.495 -9 16 C-9.02693575 13.87506859 -9.04636628 11.75004088 -9.0625 9.625 C-9.07410156 8.44164062 -9.08570313 7.25828125 -9.09765625 6.0390625 C-9 3 -9 3 -8 1 C-5 0 -5 0 0 0 Z " fill="#EEEEEE" transform="translate(229,161)"/>
<path d="M0 0 C1.2065625 0.0309375 1.2065625 0.0309375 2.4375 0.0625 C3.60844005 2.8524439 4.77440927 5.64428597 5.9375 8.4375 C6.27136719 9.2315625 6.60523438 10.025625 6.94921875 10.84375 C7.26503906 11.60429687 7.58085937 12.36484375 7.90625 13.1484375 C8.19951172 13.8501709 8.49277344 14.5519043 8.79492188 15.27490234 C9.4375 17.0625 9.4375 17.0625 9.4375 19.0625 C8.1175 18.7325 6.7975 18.4025 5.4375 18.0625 C5.4375 17.4025 5.4375 16.7425 5.4375 16.0625 C4.4475 15.7325 3.4575 15.4025 2.4375 15.0625 C2.4375 14.0725 2.4375 13.0825 2.4375 12.0625 C2.1075 13.0525 1.7775 14.0425 1.4375 15.0625 C-0.2125 14.7325 -1.8625 14.4025 -3.5625 14.0625 C-3.58935938 11.91673363 -3.60883088 9.77087355 -3.625 7.625 C-3.63660156 6.43003906 -3.64820313 5.23507813 -3.66015625 4.00390625 C-3.53008299 0.08609959 -3.53008299 0.08609959 0 0 Z " fill="#EDEDEC" transform="translate(135.5625,131.9375)"/>
<path d="M0 0 C0 4.95 0 9.9 0 15 C-4.455 15.495 -4.455 15.495 -9 16 C-9.02693575 13.87506859 -9.04636628 11.75004088 -9.0625 9.625 C-9.07410156 8.44164063 -9.08570313 7.25828125 -9.09765625 6.0390625 C-9 3 -9 3 -8 1 C-5 0 -5 0 0 0 Z " fill="#EEEEEE" transform="translate(229,73)"/>
<path d="M0 0 C0.33 0 0.66 0 1 0 C0.56438693 6.75200262 -0.40075629 13.13581165 -4 19 C-7.25 20.625 -7.25 20.625 -10 21 C-10.95261487 16.23692563 -11.08333357 11.8333472 -11 7 C-8.36 7 -5.72 7 -3 7 C-2.01 4.69 -1.02 2.38 0 0 Z " fill="#F4F9FA" transform="translate(187,125)"/>
<path d="M0 0 C2.31 0 4.62 0 7 0 C7 4.62 7 9.24 7 14 C4.36 14 1.72 14 -1 14 C-1.02685938 11.85423363 -1.04633088 9.70837355 -1.0625 7.5625 C-1.07410156 6.36753906 -1.08570313 5.17257813 -1.09765625 3.94140625 C-1 1 -1 1 0 0 Z " fill="#FEFEFE" transform="translate(222,147)"/>
<path d="M0 0 C2.31 0 4.62 0 7 0 C7 4.62 7 9.24 7 14 C4.36 14 1.72 14 -1 14 C-1.02685938 11.85423363 -1.04633088 9.70837355 -1.0625 7.5625 C-1.07410156 6.36753906 -1.08570313 5.17257813 -1.09765625 3.94140625 C-1 1 -1 1 0 0 Z " fill="#FEFEFE" transform="translate(222,59)"/>
<path d="M0 0 C1.58367747 0.14204741 3.16693318 0.28880153 4.75 0.4375 C5.63171875 0.51871094 6.5134375 0.59992188 7.421875 0.68359375 C10 1 10 1 11.76757812 1.51367188 C14.65032605 2.14167208 17.34678538 2.11157177 20.296875 2.09765625 C22.10478516 2.09282227 22.10478516 2.09282227 23.94921875 2.08789062 C25.83060547 2.07532227 25.83060547 2.07532227 27.75 2.0625 C29.01972656 2.05798828 30.28945312 2.05347656 31.59765625 2.04882812 C34.73181836 2.03704556 37.86588541 2.02059416 41 2 C40.34 2.33 39.68 2.66 39 3 C39 3.66 39 4.32 39 5 C33.95121902 6.01946539 29.12413591 6.15036701 24 6.125 C23.21882813 6.12886719 22.43765625 6.13273438 21.6328125 6.13671875 C15.68345475 6.126703 10.3130827 5.913626 5 3 C3.33859237 2.32033324 1.67299959 1.65061095 0 1 C0 0.67 0 0.34 0 0 Z " fill="#1271B8" transform="translate(89,183)"/>
<path d="M0 0 C0.33 0 0.66 0 1 0 C1.03738281 1.29292969 1.07476562 2.58585937 1.11328125 3.91796875 C1.47044966 13.97288876 2.18290224 23.29075739 5 33 C3.35 32.67 1.7 32.34 0 32 C0 30.68 0 29.36 0 28 C-0.99 27.67 -1.98 27.34 -3 27 C-3.05395478 25.37536158 -3.09277195 23.75021459 -3.125 22.125 C-3.15980469 20.76761719 -3.15980469 20.76761719 -3.1953125 19.3828125 C-3 17 -3 17 -1 15 C-0.69400937 12.43083343 -0.48912913 9.95241616 -0.375 7.375 C-0.33632813 6.66859375 -0.29765625 5.9621875 -0.2578125 5.234375 C-0.16352276 3.49001476 -0.08067109 1.74504309 0 0 Z " fill="#D7E4E9" transform="translate(32,104)"/>
<path d="M0 0 C-0.59637091 1.58628608 -1.20245925 3.16892059 -1.8125 4.75 C-2.31716797 6.07257813 -2.31716797 6.07257813 -2.83203125 7.421875 C-3.96846822 9.93039808 -5.26542927 11.87279005 -7 14 C-9 12 -9 12 -9.1953125 8.9609375 C-9.17210938 7.77757813 -9.14890625 6.59421875 -9.125 5.375 C-9.10695313 4.18648438 -9.08890625 2.99796875 -9.0703125 1.7734375 C-9.04710938 0.85820313 -9.02390625 -0.05703125 -9 -1 C-5.23375329 -2.25541557 -3.62811066 -1.37061958 0 0 Z " fill="#E2ECF0" transform="translate(97,60)"/>
<path d="M0 0 C2.31 0 4.62 0 7 0 C8.25541557 3.76624671 7.37061958 5.37188934 6 9 C5.34 9 4.68 9 4 9 C4 10.32 4 11.64 4 13 C3.34 13 2.68 13 2 13 C1.67 13.99 1.34 14.98 1 16 C-0.79074734 10.10106757 -1.08360869 6.06820868 0 0 Z " fill="#FCFCFA" transform="translate(74,88)"/>
<path d="M0 0 C-0.33 0.99 -0.66 1.98 -1 3 C-1 2.34 -1 1.68 -1 1 C-2.15628906 1.433125 -2.15628906 1.433125 -3.3359375 1.875 C-4.84027344 2.431875 -4.84027344 2.431875 -6.375 3 C-7.37273437 3.37125 -8.37046875 3.7425 -9.3984375 4.125 C-12 5 -12 5 -14 5 C-14.144375 6.27875 -14.28875 7.5575 -14.4375 8.875 C-14.70642746 11.25692894 -14.92226346 12.84452691 -16 15 C-16.66 15 -17.32 15 -18 15 C-19.32 11.7 -20.64 8.4 -22 5 C-20.96359375 4.73445313 -19.9271875 4.46890625 -18.859375 4.1953125 C-17.48952244 3.83877553 -16.11973412 3.4819917 -14.75 3.125 C-13.72712891 2.86396484 -13.72712891 2.86396484 -12.68359375 2.59765625 C-9.88082843 1.86295078 -7.2806781 1.14606717 -4.703125 -0.1953125 C-3 -1 -3 -1 0 0 Z " fill="#136AA7" transform="translate(158,123)"/>
<path d="M0 0 C0.66 0.33 1.32 0.66 2 1 C0.13956588 8.52333445 -2.54106504 15.60189281 -7 22 C-7.99 22.33 -8.98 22.66 -10 23 C-10 23.66 -10 24.32 -10 25 C-11.65 25.66 -13.3 26.32 -15 27 C-15 27.66 -15 28.32 -15 29 C-20.52977326 32.94983804 -25.34743061 33.13044254 -32 33 C-29.00692341 31.39532024 -26.05190877 30.37533691 -22.8125 29.375 C-14.11142567 26.19620751 -8.80892755 21.13290004 -4.5625 12.9375 C-2.61893214 8.68964669 -1.03478915 4.55307226 0 0 Z " fill="#226EA9" transform="translate(173,77)"/>
<path d="M0 0 C6.33393082 -0.34548714 11.10261508 0.70657253 17 3 C16.33333333 4.33333333 15.66666667 5.66666667 15 7 C14.37738281 6.79503906 13.75476563 6.59007812 13.11328125 6.37890625 C2.88424997 3.3972221 -7.40966673 3.26937188 -18 3 C-18 2.67 -18 2.34 -18 2 C-12.06 2 -6.12 2 0 2 C0 1.34 0 0.68 0 0 Z " fill="#2678B6" transform="translate(125,35)"/>
<path d="M0 0 C2.58410205 3.14487493 4.13785682 6.30705841 5.6875 10.0625 C6.12449219 11.10535156 6.56148437 12.14820313 7.01171875 13.22265625 C8 16 8 16 8 19 C0.08 19 -7.84 19 -16 19 C-16.66 16.69 -17.32 14.38 -18 12 C-17.01 12.33 -16.02 12.66 -15 13 C-15 14.65 -15 16.3 -15 18 C-4.605 17.505 -4.605 17.505 6 17 C3.5797509 11.36893239 3.5797509 11.36893239 1 9 C0.5859375 6.8359375 0.5859375 6.8359375 0.375 4.375 C0.30023438 3.55773437 0.22546875 2.74046875 0.1484375 1.8984375 C0.07496094 0.95871094 0.07496094 0.95871094 0 0 Z " fill="#1368A7" transform="translate(161,132)"/>
<path d="M0 0 C0.6875 3 0.6875 3 1 6 C0 7 0 7 -2.94140625 7.09765625 C-4.73384766 7.08025391 -4.73384766 7.08025391 -6.5625 7.0625 C-8.35880859 7.04896484 -8.35880859 7.04896484 -10.19140625 7.03515625 C-11.11824219 7.02355469 -12.04507813 7.01195312 -13 7 C-5.71428571 -2.85714286 -5.71428571 -2.85714286 0 0 Z " fill="#F3F9F8" transform="translate(73,52)"/>
<path d="M0 0 C7.92 0 15.84 0 24 0 C24.33 1.65 24.66 3.3 25 5 C24.38125 4.649375 23.7625 4.29875 23.125 3.9375 C22.42375 3.628125 21.7225 3.31875 21 3 C20.01 3.495 20.01 3.495 19 4 C16.31419397 3.96237556 13.67729258 3.85834122 11 3.6875 C9.89398438 3.63432617 9.89398438 3.63432617 8.765625 3.58007812 C3.24243805 3.24243805 3.24243805 3.24243805 1 1 C1 1.99 1 2.98 1 4 C0.34 4 -0.32 4 -1 4 C-0.67 2.68 -0.34 1.36 0 0 Z " fill="#106AAC" transform="translate(101,50)"/>
<path d="M0 0 C0.33 0 0.66 0 1 0 C0.52741572 5.86004506 -0.45497894 11.05223556 -2.28125 16.640625 C-3.02344696 19.07696718 -3.51025838 21.50231776 -4 24 C-4.33 24.99 -4.66 25.98 -5 27 C-5.66 27 -6.32 27 -7 27 C-7.58656258 19.96124905 -6.22118548 15.29890514 -3.2890625 8.89453125 C-1.98901704 5.97533826 -0.96517756 3.04436847 0 0 Z " fill="#026EC0" transform="translate(176,74)"/>
<path d="M0 0 C0.33 0.66 0.66 1.32 1 2 C-1.64 2 -4.28 2 -7 2 C-7 4.97 -7 7.94 -7 11 C-4.21081851 12.10540926 -4.21081851 12.10540926 -2 12 C-2 12.99 -2 13.98 -2 15 C-4.5 16.6875 -4.5 16.6875 -7 18 C-7.66 16.68 -8.32 15.36 -9 14 C-8.34 13.67 -7.68 13.34 -7 13 C-7.66 12.34 -8.32 11.68 -9 11 C-8.96692593 7.94616121 -8.43304158 5.03129104 -8 2 C-13.28 2 -18.56 2 -24 2 C-24 1.67 -24 1.34 -24 1 C-16.08 0.67 -8.16 0.34 0 0 Z " fill="#C8DCE9" transform="translate(169,150)"/>
<path d="M0 0 C2.97 0.495 2.97 0.495 6 1 C6 1.66 6 2.32 6 3 C3.45953542 3.50688605 0.91791124 4.00566874 -1.625 4.5 C-2.33785156 4.64308594 -3.05070312 4.78617187 -3.78515625 4.93359375 C-12.23332848 6.56122326 -12.23332848 6.56122326 -16 6 C-17.32 4.35 -18.64 2.7 -20 1 C-13.4 1.66 -6.8 2.32 0 3 C0 2.01 0 1.02 0 0 Z " fill="#106FB0" transform="translate(136,120)"/>
<path d="M0 0 C1.98 0 3.96 0 6 0 C5.67 1.65 5.34 3.3 5 5 C-4.41002278 8.62870159 -4.41002278 8.62870159 -9 7 C-8.67 6.01 -8.34 5.02 -8 4 C-5.36 3.67 -2.72 3.34 0 3 C0 2.01 0 1.02 0 0 Z " fill="#F1F7F9" transform="translate(149,101)"/>
<path d="M0 0 C0.66 0.33 1.32 0.66 2 1 C1.38271885 4.38361519 0.13020282 6.52002561 -1.9375 9.25 C-2.46214844 9.95640625 -2.98679687 10.6628125 -3.52734375 11.390625 C-4.01332031 11.92171875 -4.49929687 12.4528125 -5 13 C-5.66 13 -6.32 13 -7 13 C-7 9.7 -7 6.4 -7 3 C-4.69631264 1.93347808 -2.35981813 0.93578995 0 0 Z " fill="#F0F7F8" transform="translate(51,56)"/>
<path d="M0 0 C8.25 0.33 16.5 0.66 25 1 C25 1.33 25 1.66 25 2 C18.73 2 12.46 2 6 2 C6.33 4.97 6.66 7.94 7 11 C6.34 11.66 5.68 12.32 5 13 C3 11 3 11 2.8046875 8.8359375 C2.82789063 8.02382812 2.85109375 7.21171875 2.875 6.375 C2.89304688 5.55773437 2.91109375 4.74046875 2.9296875 3.8984375 C2.96449219 2.95871094 2.96449219 2.95871094 3 2 C2.01 2 1.02 2 0 2 C0 1.34 0 0.68 0 0 Z " fill="#CADCE5" transform="translate(56,150)"/>
<path d="M0 0 C0.33 0 0.66 0 1 0 C1.33 4.29 1.66 8.58 2 13 C2.33 10.36 2.66 7.72 3 5 C3.33 5 3.66 5 4 5 C4 10.28 4 15.56 4 21 C3.34 21 2.68 21 2 21 C2 21.99 2 22.98 2 24 C1.34 24 0.68 24 0 24 C0 16.08 0 8.16 0 0 Z " fill="#1167A8" transform="translate(190,99)"/>
<path d="M0 0 C1.72774308 -0.10892951 3.45750948 -0.18601092 5.1875 -0.25 C6.15042969 -0.29640625 7.11335938 -0.3428125 8.10546875 -0.390625 C11 0 11 0 16 4 C10.39 4 4.78 4 -1 4 C-0.67 2.68 -0.34 1.36 0 0 Z " fill="#FBFCFB" transform="translate(104,29)"/>
<path d="M0 0 C1.32 0 2.64 0 4 0 C3.34 1.65 2.68 3.3 2 5 C3.65 5.66 5.3 6.32 7 7 C3.89914429 9.06723714 3.27068319 9.24497423 -0.23046875 9.1953125 C-1.43413086 9.18564453 -1.43413086 9.18564453 -2.66210938 9.17578125 C-3.49548828 9.15902344 -4.32886719 9.14226562 -5.1875 9.125 C-6.03248047 9.11597656 -6.87746094 9.10695312 -7.74804688 9.09765625 C-9.83215243 9.07410703 -11.91611217 9.03823647 -14 9 C-14 8.67 -14 8.34 -14 8 C-9.71 8 -5.42 8 -1 8 C-1.020625 6.865625 -1.04125 5.73125 -1.0625 4.5625 C-1 1 -1 1 0 0 Z " fill="#D3E3ED" transform="translate(118,176)"/>
<path d="M0 0 C1.65 1.32 3.3 2.64 5 4 C4.39254603 8.85963179 2.27241033 12.7405518 0 17 C-0.66 16.67 -1.32 16.34 -2 16 C-1.4740625 14.329375 -1.4740625 14.329375 -0.9375 12.625 C0.37239331 9.19735524 0.37239331 9.19735524 -1 7 C-1.66 7 -2.32 7 -3 7 C-2.690625 6.401875 -2.38125 5.80375 -2.0625 5.1875 C-0.89790296 2.91043228 -0.89790296 2.91043228 0 0 Z " fill="#F5F5F6" transform="translate(59,128)"/>
<path d="M0 0 C3.96 0 7.92 0 12 0 C12 0.99 12 1.98 12 3 C7.8794254 4.99785435 4.54805635 5.17835515 0 5 C0 3.35 0 1.7 0 0 Z " fill="#F5FBFA" transform="translate(132,176)"/>
<path d="M0 0 C0.66 0 1.32 0 2 0 C3.00419637 2.4566947 4.00350501 4.91518353 5 7.375 C5.42925781 8.42300781 5.42925781 8.42300781 5.8671875 9.4921875 C8 14.7734375 8 14.7734375 8 17 C6.68 16.67 5.36 16.34 4 16 C4 15.34 4 14.68 4 14 C3.01 13.67 2.02 13.34 1 13 C1.33 10.36 1.66 7.72 2 5 C1.01 4.67 0.02 4.34 -1 4 C-0.67 2.68 -0.34 1.36 0 0 Z " fill="#DAE7EC" transform="translate(137,134)"/>
<path d="M0 0 C0.33 0.99 0.66 1.98 1 3 C0.33333333 4.33333333 -0.33333333 5.66666667 -1 7 C-1.25069913 9.62570704 -1.25069913 9.62570704 -1 12 C-0.67 12.33 -0.34 12.66 0 13 C0.04080783 14.99958364 0.04254356 17.00045254 0 19 C-0.33 19 -0.66 19 -1 19 C-1.66 17.02 -2.32 15.04 -3 13 C-3.33 14.65 -3.66 16.3 -4 18 C-4.99 18 -5.98 18 -7 18 C-7.144375 18.78375 -7.28875 19.5675 -7.4375 20.375 C-8 23 -8 23 -9 25 C-9.66 24.67 -10.32 24.34 -11 24 C-9.54304237 20.74938156 -8.08419362 17.49961525 -6.625 14.25 C-6.2125 13.32960938 -5.8 12.40921875 -5.375 11.4609375 C-4.77558594 10.12675781 -4.77558594 10.12675781 -4.1640625 8.765625 C-3.79748535 7.94868164 -3.4309082 7.13173828 -3.05322266 6.29003906 C-2.07795543 4.16949975 -1.05708873 2.08075174 0 0 Z " fill="#166CAE" transform="translate(79,100)"/>
<path d="M0 0 C0.33 0 0.66 0 1 0 C1.73181137 7.86697223 -0.44506354 16.54057873 -5.140625 22.8984375 C-5.75421875 23.59195313 -6.3678125 24.28546875 -7 25 C-7.33 23.68 -7.66 22.36 -8 21 C-7.01 21 -6.02 21 -5 21 C-5.04125 19.906875 -5.0825 18.81375 -5.125 17.6875 C-5 14 -5 14 -3 11 C-2.37277631 9.05544516 -2.37277631 9.05544516 -1.9375 7 C-1.38634135 4.59494408 -0.78315075 2.34945224 0 0 Z " fill="#146BAE" transform="translate(176,80)"/>
<path d="M0 0 C0.33 0.99 0.66 1.98 1 3 C1.66 3 2.32 3 3 3 C3 2.01 3 1.02 3 0 C3.66 0 4.32 0 5 0 C3.44191344 11.70615034 3.44191344 11.70615034 -1 16 C-2.49697302 10.31150252 -1.3348044 5.58190932 0 0 Z " fill="#0F6CB5" transform="translate(189,120)"/>
<path d="M0 0 C0.33 0 0.66 0 1 0 C0.88610125 1.79240663 0.75852313 3.58394835 0.625 5.375 C0.55539063 6.37273437 0.48578125 7.37046875 0.4140625 8.3984375 C0 11 0 11 -2 13 C-5.125 13.125 -5.125 13.125 -8 13 C-7.50628906 12.22914063 -7.01257813 11.45828125 -6.50390625 10.6640625 C-5.86324219 9.66117188 -5.22257813 8.65828125 -4.5625 7.625 C-3.92441406 6.62726563 -3.28632813 5.62953125 -2.62890625 4.6015625 C-1.03100789 2.14169479 -1.03100789 2.14169479 0 0 Z " fill="#E4ECF0" transform="translate(184,148)"/>
<path d="M0 0 C0.33 0 0.66 0 1 0 C0 8.57142857 0 8.57142857 -1 12 C-2.65 12.33 -4.3 12.66 -6 13 C-6.75 11.3125 -6.75 11.3125 -7 9 C-5.21482174 6.35301155 -3.87978754 4.43989377 -1 3 C-0.67 2.01 -0.34 1.02 0 0 Z " fill="#DCE9ED" transform="translate(174,69)"/>
<path d="M0 0 C-1.32 0.33 -2.64 0.66 -4 1 C-4 1.66 -4 2.32 -4 3 C-1.69 3 0.62 3 3 3 C3 3.33 3 3.66 3 4 C-5.57142857 5.42857143 -5.57142857 5.42857143 -9 3 C-9 2.34 -9 1.68 -9 1 C-10.98 1 -12.96 1 -15 1 C-15 0.67 -15 0.34 -15 0 C-13.25360243 -0.39143394 -11.50264082 -0.76254287 -9.75 -1.125 C-8.77546875 -1.33382812 -7.8009375 -1.54265625 -6.796875 -1.7578125 C-3.76557234 -2.0202996 -2.51982654 -1.61988849 0 0 Z " fill="#E4EDEC" transform="translate(137,188)"/>
<path d="M0 0 C-0.99 0.33 -1.98 0.66 -3 1 C-0.03 1.495 -0.03 1.495 3 2 C2.01 2.66 1.02 3.32 0 4 C0 4.66 0 5.32 0 6 C-1.98567708 5.67447917 -3.97135417 5.34895833 -5.95703125 5.0234375 C-8.31755824 4.80422152 -8.31755824 4.80422152 -11 7 C-10.649375 6.38125 -10.29875 5.7625 -9.9375 5.125 C-9.628125 4.42375 -9.31875 3.7225 -9 3 C-9.33 2.34 -9.66 1.68 -10 1 C-3.71428571 -1.42857143 -3.71428571 -1.42857143 0 0 Z " fill="#DDE6EA" transform="translate(114,130)"/>
<path d="M0 0 C0.66 0.33 1.32 0.66 2 1 C2 2.98 2 4.96 2 7 C2.99 7 3.98 7 5 7 C5 8.32 5 9.64 5 11 C4.34 11 3.68 11 3 11 C3 11.66 3 12.32 3 13 C1.68 13 0.36 13 -1 13 C-0.67 8.71 -0.34 4.42 0 0 Z " fill="#F7FBF8" transform="translate(178,75)"/>
<path d="M0 0 C2.06547922 3.09821883 3.56243611 6.18449352 5.125 9.5625 C5.66382813 10.71878906 6.20265625 11.87507813 6.7578125 13.06640625 C8 16 8 16 8 18 C7.01 17.67 6.02 17.34 5 17 C5 16.01 5 15.02 5 14 C3.35 13.67 1.7 13.34 0 13 C0 12.34 0 11.68 0 11 C0.66 11 1.32 11 2 11 C1.67 9.9275 1.34 8.855 1 7.75 C0 4 0 4 0 0 Z " fill="#186FAF" transform="translate(128,58)"/>
<path d="M0 0 C0 0.66 0 1.32 0 2 C-0.33 2.33 -0.66 2.66 -1 3 C-0.01 3.33 0.98 3.66 2 4 C-0.97 5.32 -3.94 6.64 -7 8 C-7 7.34 -7 6.68 -7 6 C-7.598125 6.350625 -8.19625 6.70125 -8.8125 7.0625 C-11 8 -11 8 -14 7 C-12.04480616 5.82807953 -10.0857461 4.6626071 -8.125 3.5 C-7.03445312 2.8503125 -5.94390625 2.200625 -4.8203125 1.53125 C-2 0 -2 0 0 0 Z " fill="#2572B0" transform="translate(79,41)"/>
<path d="M0 0 C5.28 0.99 10.56 1.98 16 3 C16 3.33 16 3.66 16 4 C11.73383684 5.13764351 8.43513689 6 4 6 C4 5.34 4 4.68 4 4 C2.68 3.67 1.36 3.34 0 3 C0 2.01 0 1.02 0 0 Z " fill="#DEEBEF" transform="translate(88,185)"/>
<path d="M0 0 C1.5 1.25 1.5 1.25 3 3 C3 4.32 3 5.64 3 7 C-0.96 8.98 -0.96 8.98 -5 11 C-4.45276317 7.62537285 -3.9451 5.91765 -2 3 C-1.34 3 -0.68 3 0 3 C0 2.01 0 1.02 0 0 Z " fill="#E7F5F6" transform="translate(100,106)"/>
<path d="M0 0 C3.32643967 2.98232523 5.29152862 5.86370087 7 10 C6.67 10.66 6.34 11.32 6 12 C5.34 10.35 4.68 8.7 4 7 C4 7.99 4 8.98 4 10 C3.67 10.99 3.34 11.98 3 13 C1.02 9.37 -0.96 5.74 -3 2 C-2.01 2 -1.02 2 0 2 C0 1.34 0 0.68 0 0 Z " fill="#1B6DAC" transform="translate(180,68)"/>
<path d="M0 0 C0 1.32 0 2.64 0 4 C-3 6 -3 6 -5.1875 5.625 C-5.785625 5.41875 -6.38375 5.2125 -7 5 C-7.33 3.68 -7.66 2.36 -8 1 C-5.29120665 -0.35439668 -2.99066732 -0.06501451 0 0 Z " fill="#F6FBFA" transform="translate(56,147)"/>
<path d="M0 0 C0.99 0 1.98 0 3 0 C3.35233161 5.37305699 3.35233161 5.37305699 3 8 C1 10 1 10 -1 11 C-1 10.34 -1 9.68 -1 9 C-1.66 9 -2.32 9 -3 9 C-2.01 6.03 -1.02 3.06 0 0 Z " fill="#F4FAF8" transform="translate(163,88)"/>
<path d="M0 0 C1.33333333 2.66666667 2.66666667 5.33333333 4 8 C-1.61 8 -7.22 8 -13 8 C-13 7.67 -13 7.34 -13 7 C-7.555 6.505 -7.555 6.505 -2 6 C-2 4.68 -2 3.36 -2 2 C-1.34 1.34 -0.68 0.68 0 0 Z " fill="#0173C5" transform="translate(164,142)"/>
<path d="M0 0 C2.97 0 5.94 0 9 0 C9.33 1.32 9.66 2.64 10 4 C8.35 4.66 6.7 5.32 5 6 C5 5.34 5 4.68 5 4 C4.01 4 3.02 4 2 4 C1.34 2.68 0.68 1.36 0 0 Z " fill="#E8EAEF" transform="translate(63,40)"/>
<path d="M0 0 C0.66 0 1.32 0 2 0 C2 4.62 2 9.24 2 14 C1.34 14 0.68 14 0 14 C-0.85380428 11.03878992 -1.13517764 8.3912356 -1.125 5.3125 C-1.12757812 4.52488281 -1.13015625 3.73726563 -1.1328125 2.92578125 C-1 1 -1 1 0 0 Z " fill="#FCFCFC" transform="translate(30,103)"/>
<path d="M0 0 C1.20628008 2.33214148 2.1654738 4.49642139 3 7 C2.01 7 1.02 7 0 7 C-0.2475 7.515625 -0.495 8.03125 -0.75 8.5625 C-2.39581616 11.77184151 -4.1976096 14.87585664 -6 18 C-6.33 17.34 -6.66 16.68 -7 16 C-5.92664301 13.23325418 -4.79739939 10.56805742 -3.5625 7.875 C-3.22412109 7.12089844 -2.88574219 6.36679687 -2.53710938 5.58984375 C-1.69839399 3.72340669 -0.85008607 1.8612857 0 0 Z " fill="#166EAD" transform="translate(99,54)"/>
<path d="M0 0 C5.75 1.875 5.75 1.875 8 3 C8 2.34 8 1.68 8 1 C11.4375 1.8125 11.4375 1.8125 15 3 C15.33 3.99 15.66 4.98 16 6 C9.58076669 5.70887831 5.37899794 4.54784971 0 1 C0 0.67 0 0.34 0 0 Z " fill="#136AAC" transform="translate(72,177)"/>
<path d="M0 0 C0.639375 0.185625 1.27875 0.37125 1.9375 0.5625 C2.9584375 0.7790625 2.9584375 0.7790625 4 1 C4.33 0.67 4.66 0.34 5 0 C5.33 0 5.66 0 6 0 C6 2.31 6 4.62 6 7 C5.67 6.34 5.34 5.68 5 5 C4.01 5.99 3.02 6.98 2 8 C1.34 7.67 0.68 7.34 0 7 C0 6.34 0 5.68 0 5 C-0.66 4.34 -1.32 3.68 -2 3 C-1.34 2.01 -0.68 1.02 0 0 Z " fill="#E1E6E7" transform="translate(170,103)"/>
<path d="M0 0 C3.73829578 4.29904015 7 10.24928075 7 16 C5.68 16.33 4.36 16.66 3 17 C3.185625 16.278125 3.37125 15.55625 3.5625 14.8125 C4.01995307 11.87173027 3.73516357 9.85896942 3 7 C2.34 7 1.68 7 1 7 C0.67 4.69 0.34 2.38 0 0 Z " fill="#1D6EAC" transform="translate(141,88)"/>
<path d="M0 0 C0.66 0.33 1.32 0.66 2 1 C0.61811547 4.21043882 -0.92421903 6.04936365 -3.625 8.25 C-4.25664063 8.77078125 -4.88828125 9.2915625 -5.5390625 9.828125 C-6.02117188 10.21484375 -6.50328125 10.6015625 -7 11 C-6.68232368 5.59950264 -3.80003673 3.47662935 0 0 Z " fill="#1C73B8" transform="translate(60,54)"/>
<path d="M0 0 C1.12894876 0.93274109 2.25300876 1.87140122 3.375 2.8125 C4.00148437 3.33457031 4.62796875 3.85664062 5.2734375 4.39453125 C7 6 7 6 9 9 C8.360625 8.67 7.72125 8.34 7.0625 8 C5.23205433 6.92728775 5.23205433 6.92728775 4 7 C3.67 7.66 3.34 8.32 3 9 C1.35 7.02 -0.3 5.04 -2 3 C-1.34 3 -0.68 3 0 3 C0 2.01 0 1.02 0 0 Z " fill="#1E6EAC" transform="translate(166,52)"/>
<path d="M0 0 C0.33 0 0.66 0 1 0 C1.02698189 1.62490954 1.04638757 3.24994633 1.0625 4.875 C1.07410156 5.77992187 1.08570313 6.68484375 1.09765625 7.6171875 C1 10 1 10 0 12 C-0.66 11.67 -1.32 11.34 -2 11 C-2.33 11.33 -2.66 11.66 -3 12 C-4.21386936 8.35839192 -3.6674695 7.66834531 -2.0625 4.3125 C-1.49208984 3.10013672 -1.49208984 3.10013672 -0.91015625 1.86328125 C-0.60980469 1.24839844 -0.30945313 0.63351563 0 0 Z " fill="#ECF6F7" transform="translate(175,93)"/>
<path d="M0 0 C1.36420006 4.09260018 -0.2335485 6.47012659 -1.9375 10.1875 C-2.22818359 10.84169922 -2.51886719 11.49589844 -2.81835938 12.16992188 C-3.53695343 13.78381344 -4.2673588 15.39243655 -5 17 C-6.30009681 13.09970958 -5.40794184 11.26488883 -4.1875 7.375 C-3.83042969 6.20710938 -3.47335938 5.03921875 -3.10546875 3.8359375 C-2 1 -2 1 0 0 Z " fill="#176BAB" transform="translate(105,88)"/>
<path d="M0 0 C3.32643967 2.98232523 5.29152862 5.86370087 7 10 C6.67 10.66 6.34 11.32 6 12 C5.01 11.67 4.02 11.34 3 11 C2.67 9.02 2.34 7.04 2 5 C1.67 6.98 1.34 8.96 1 11 C0.67 11 0.34 11 0 11 C0 7.37 0 3.74 0 0 Z " fill="#C5E0EF" transform="translate(177,71)"/>
<path d="M0 0 C1.65 0.33 3.3 0.66 5 1 C4.5504955 2.31554985 4.09010284 3.62738358 3.625 4.9375 C3.36976562 5.66839844 3.11453125 6.39929688 2.8515625 7.15234375 C2 9 2 9 0 10 C-1.125 6.6875 -1.125 6.6875 -2 3 C-1.34 2.01 -0.68 1.02 0 0 Z " fill="#EEEDEC" transform="translate(91,58)"/>
<path d="M0 0 C0.33 0.66 0.66 1.32 1 2 C1.66 2.33 2.32 2.66 3 3 C2.67 3.99 2.34 4.98 2 6 C2.66 6 3.32 6 4 6 C3.67 7.32 3.34 8.64 3 10 C-0.74278215 8.5511811 -0.74278215 8.5511811 -1.875 6.125 C-2.02787435 3.52613603 -1.33454536 2.1980747 0 0 Z " fill="#DFEAEE" transform="translate(187,142)"/>
<path d="M0 0 C0 0.66 0 1.32 0 2 C-0.66 2 -1.32 2 -2 2 C-2.33 2.99 -2.66 3.98 -3 5 C-5.0625 5.6875 -5.0625 5.6875 -7 6 C-7 5.34 -7 4.68 -7 4 C-8.65 3.67 -10.3 3.34 -12 3 C-7.85930434 0.85826087 -4.68855996 -0.12671784 0 0 Z " fill="#D2E5EC" transform="translate(154,120)"/>
<path d="M0 0 C1.9296875 0.74609375 1.9296875 0.74609375 4 2 C4.7578125 3.91015625 4.7578125 3.91015625 5.125 6.0625 C5.46386733 8.17293875 5.46386733 8.17293875 6 10 C6.66 10.33 7.32 10.66 8 11 C8 12.65 8 14.3 8 16 C3.55733335 11.39866669 1.95760013 5.94568974 0 0 Z " fill="#DEF1F8" transform="translate(40,133)"/>
<path d="M0 0 C0.66 0 1.32 0 2 0 C1.54554036 1.41791408 1.08625056 2.83428046 0.625 4.25 C0.36976562 5.03890625 0.11453125 5.8278125 -0.1484375 6.640625 C-0.95173667 8.86627958 -1.89711662 10.90931672 -3 13 C-3.66 13 -4.32 13 -5 13 C-5 11.02 -5 9.04 -5 7 C-4.01 7 -3.02 7 -2 7 C-2 6.01 -2 5.02 -2 4 C-1.34 4 -0.68 4 0 4 C0 2.68 0 1.36 0 0 Z " fill="#E1EEF4" transform="translate(78,97)"/>
<path d="M0 0 C0.33 0 0.66 0 1 0 C1.99 4.29 2.98 8.58 4 13 C2.35 12.67 0.7 12.34 -1 12 C-1.08159574 7.83861737 -0.98248524 4.0527516 0 0 Z " fill="#E2EFF5" transform="translate(33,124)"/>
<path d="M0 0 C0.99 0 1.98 0 3 0 C3.33 1.98 3.66 3.96 4 6 C2.68 6.99 1.36 7.98 0 9 C-0.66 6.69 -1.32 4.38 -2 2 C-1.01 2.33 -0.02 2.66 1 3 C0.67 2.01 0.34 1.02 0 0 Z " fill="#086CB0" transform="translate(116,72)"/>
<path d="M0 0 C2.31 0.33 4.62 0.66 7 1 C6.01 1.33 5.02 1.66 4 2 C4 2.99 4 3.98 4 5 C2.68 5 1.36 5 0 5 C-0.33 6.32 -0.66 7.64 -1 9 C-2.25541557 5.23375329 -1.37061958 3.62811066 0 0 Z " fill="#DBE6ED" transform="translate(191,131)"/>
<path d="M0 0 C0.33 0.99 0.66 1.98 1 3 C1.66 3.33 2.32 3.66 3 4 C-3.75 5.125 -3.75 5.125 -6 4 C-5.67 3.01 -5.34 2.02 -5 1 C-3.35 0.67 -1.7 0.34 0 0 Z " fill="#E4F0F4" transform="translate(146,104)"/>
<path d="M0 0 C5.28 0.33 10.56 0.66 16 1 C16 1.33 16 1.66 16 2 C8.08 2.495 8.08 2.495 0 3 C0 2.01 0 1.02 0 0 Z " fill="#F6FCFD" transform="translate(124,105)"/>
<path d="M0 0 C7.75 0.875 7.75 0.875 10 2 C10 2.99 10 3.98 10 5 C8.51793505 4.745504 7.03931385 4.47088238 5.5625 4.1875 C4.73878906 4.03667969 3.91507813 3.88585938 3.06640625 3.73046875 C2.38449219 3.48941406 1.70257813 3.24835937 1 3 C0.67 2.01 0.34 1.02 0 0 Z " fill="#0769B4" transform="translate(139,39)"/>
<path d="M0 0 C2.97 0 5.94 0 9 0 C9 1.32 9 2.64 9 4 C4.53159589 3.50351065 3.31012244 3.31012244 0 0 Z " fill="#ECF6FA" transform="translate(79,176)"/>
<path d="M0 0 C0.99 0.33 1.98 0.66 3 1 C2.04578192 2.14926266 1.08647955 3.29430541 0.125 4.4375 C-0.40867187 5.07558594 -0.94234375 5.71367187 -1.4921875 6.37109375 C-3 8 -3 8 -5 9 C-5 7.68 -5 6.36 -5 5 C-3.68 4.67 -2.36 4.34 -1 4 C-1.33 3.01 -1.66 2.02 -2 1 C-1.34 0.67 -0.68 0.34 0 0 Z " fill="#1269AE" transform="translate(89,137)"/>
<path d="M0 0 C2.64 0 5.28 0 8 0 C4.25474201 3.74525799 0.01729091 3.68909949 -5 4 C-4.34 3.34 -3.68 2.68 -3 2 C-2.01 2 -1.02 2 0 2 C0 1.34 0 0.68 0 0 Z " fill="#0A69AE" transform="translate(79,41)"/>
<path d="M0 0 C1.17571451 3.67410785 1.07366746 7.16929183 1 11 C0.34 10.34 -0.32 9.68 -1 9 C-1.33 9.66 -1.66 10.32 -2 11 C-2.66 11 -3.32 11 -4 11 C-3.52269162 9.5410574 -3.04308958 8.08286504 -2.5625 6.625 C-2.29566406 5.81289062 -2.02882813 5.00078125 -1.75390625 4.1640625 C-1 2 -1 2 0 0 Z " fill="#DAECF4" transform="translate(102,98)"/>
<path d="M0 0 C1.32 0 2.64 0 4 0 C4 2.97 4 5.94 4 9 C3.67 8.01 3.34 7.02 3 6 C2.34 6 1.68 6 1 6 C0 3 0 3 0 0 Z " fill="#FAFCFB" transform="translate(187,73)"/>
<path d="M0 0 C2.64 1.98 5.28 3.96 8 6 C7.67 6.66 7.34 7.32 7 8 C5.68 7.34 4.36 6.68 3 6 C3 5.34 3 4.68 3 4 C2.01 4 1.02 4 0 4 C0 2.68 0 1.36 0 0 Z " fill="#DBEAF0" transform="translate(158,51)"/>
<path d="M0 0 C0.66 0 1.32 0 2 0 C1.54738642 1.43931117 1.08767021 2.87638999 0.625 4.3125 C0.36976562 5.11300781 0.11453125 5.91351563 -0.1484375 6.73828125 C-1 9 -1 9 -3 12 C-3.66 11.67 -4.32 11.34 -5 11 C-1.85714286 3.57142857 -1.85714286 3.57142857 0 0 Z " fill="#E6F4F9" transform="translate(62,133)"/>
<path d="M0 0 C0.33 0.99 0.66 1.98 1 3 C1.66 3 2.32 3 3 3 C3 2.01 3 1.02 3 0 C3.66 0 4.32 0 5 0 C4.34 3.3 3.68 6.6 3 10 C2.67 10 2.34 10 2 10 C0.68373308 6.38026598 0 3.90432869 0 0 Z " fill="#2778B4" transform="translate(189,120)"/>
<path d="M0 0 C0.66 0.99 1.32 1.98 2 3 C1.34 3 0.68 3 0 3 C0 4.32 0 5.64 0 7 C-0.66 7 -1.32 7 -2 7 C-2.66 8.32 -3.32 9.64 -4 11 C-3.48964169 6.6109185 -2.47785723 3.66291938 0 0 Z " fill="#0B74B6" transform="translate(140,85)"/>
<path d="M0 0 C0.66 0.33 1.32 0.66 2 1 C0.35 4.3 -1.3 7.6 -3 11 C-3.33 11 -3.66 11 -4 11 C-4 9.02 -4 7.04 -4 5 C-3.01 5 -2.02 5 -1 5 C-0.67 3.35 -0.34 1.7 0 0 Z " fill="#E0F0F7" transform="translate(170,83)"/>
<path d="M0 0 C0.33 0 0.66 0 1 0 C1.125 5.75 1.125 5.75 0 8 C-1.32 7.67 -2.64 7.34 -4 7 C-4 6.34 -4 5.68 -4 5 C-3.34 5 -2.68 5 -2 5 C-2 4.01 -2 3.02 -2 2 C-1.34 2 -0.68 2 0 2 C0 1.34 0 0.68 0 0 Z " fill="#E6EAE5" transform="translate(85,80)"/>
<path d="M0 0 C-0.33 0.66 -0.66 1.32 -1 2 C-2.32 1.67 -3.64 1.34 -5 1 C-5 1.66 -5 2.32 -5 3 C-7.97 2.505 -7.97 2.505 -11 2 C-6.98764085 -0.6749061 -4.6342454 -1.48957888 0 0 Z " fill="#E2EDF1" transform="translate(104,39)"/>
<path d="M0 0 C0.66 0.33 1.32 0.66 2 1 C1.67 2.32 1.34 3.64 1 5 C-0.65 5.33 -2.3 5.66 -4 6 C-2.25 1.125 -2.25 1.125 0 0 Z " fill="#146AAF" transform="translate(159,170)"/>
<path d="M0 0 C2.73058469 1.04404709 4.1850125 2.66465669 6.125 4.8125 C5.320625 4.626875 4.51625 4.44125 3.6875 4.25 C2.841875 4.105625 1.99625 3.96125 1.125 3.8125 C0.795 4.1425 0.465 4.4725 0.125 4.8125 C-1.195 3.4925 -2.515 2.1725 -3.875 0.8125 C-1.875 -0.1875 -1.875 -0.1875 0 0 Z " fill="#2476AF" transform="translate(57.875,163.1875)"/>
<path d="M0 0 C-0.54723683 3.37462715 -1.0549 5.08235 -3 8 C-3.66 5.69 -4.32 3.38 -5 1 C-2 0 -2 0 0 0 Z " fill="#0471C3" transform="translate(143,128)"/>
<path d="M0 0 C2.64 0.33 5.28 0.66 8 1 C7.67 2.65 7.34 4.3 7 6 C6.401875 5.649375 5.80375 5.29875 5.1875 4.9375 C2.89186786 3.66695302 2.89186786 3.66695302 0 5 C0 4.34 0 3.68 0 3 C0.66 3 1.32 3 2 3 C2 2.34 2 1.68 2 1 C1.34 0.67 0.68 0.34 0 0 Z " fill="#DDF1F8" transform="translate(152,119)"/>
<path d="M0 0 C1.32 0.66 2.64 1.32 4 2 C4 3.32 4 4.64 4 6 C2.68 6 1.36 6 0 6 C-1.125 2.25 -1.125 2.25 0 0 Z " fill="#F5FAF9" transform="translate(59,170)"/>
<path d="M0 0 C0.66 0 1.32 0 2 0 C2 3.3 2 6.6 2 10 C-1 6 -1 6 -0.6875 2.75 C-0.460625 1.8425 -0.23375 0.935 0 0 Z " fill="#F0FAF9" transform="translate(145,88)"/>
<path d="M0 0 C1.32 1.32 2.64 2.64 4 4 C3.67 4.66 3.34 5.32 3 6 C2.34 6 1.68 6 1 6 C0.01 6.495 0.01 6.495 -1 7 C-2 4 -2 4 -1.0625 1.8125 C-0.5365625 0.9153125 -0.5365625 0.9153125 0 0 Z " fill="#EAF6FA" transform="translate(171,63)"/>
<path d="M0 0 C0.33 1.32 0.66 2.64 1 4 C-4.94 3.01 -4.94 3.01 -11 2 C-11 1.67 -11 1.34 -11 1 C-9.54182203 0.83197949 -8.0834516 0.66562857 -6.625 0.5 C-5.81289062 0.4071875 -5.00078125 0.314375 -4.1640625 0.21875 C-2 0 -2 0 0 0 Z " fill="#E9E9E4" transform="translate(144,43)"/>
<path d="M0 0 C2 2 2 2 2.1953125 3.9453125 C2.13020833 5.96354167 2.06510417 7.98177083 2 10 C1.01 10 0.02 10 -1 10 C-0.67 6.7 -0.34 3.4 0 0 Z " fill="#D9E5E6" transform="translate(187,118)"/>
<path d="M0 0 C0.598125 0.165 1.19625 0.33 1.8125 0.5 C4.11344336 1.1114124 4.11344336 1.1114124 7 1 C6.34 2.32 5.68 3.64 5 5 C3.02 4.01 1.04 3.02 -1 2 C-0.67 1.34 -0.34 0.68 0 0 Z " fill="#DCE9F1" transform="translate(73,172)"/>
<path d="M0 0 C2.89932357 2.39509338 3.50168276 4.31245243 4 8 C2.68 7.67 1.36 7.34 0 7 C0 4.69 0 2.38 0 0 Z " fill="#E3F2F6" transform="translate(141,143)"/>
<path d="M0 0 C0.12375 0.5775 0.2475 1.155 0.375 1.75 C1.00648824 4.02335767 1.88858191 5.9253529 3 8 C-1 8 -1 8 -3 7 C-2.01 4.69 -1.02 2.38 0 0 Z " fill="#1D72B1" transform="translate(91,72)"/>
<path d="M0 0 C1.67542976 0.28604898 3.34385343 0.61781233 5 1 C4.67 1.99 4.34 2.98 4 4 C1.9375 4.6875 1.9375 4.6875 0 5 C-0.5625 3.0625 -0.5625 3.0625 -1 1 C-0.67 0.67 -0.34 0.34 0 0 Z " fill="#ECF7F5" transform="translate(152,169)"/>
<path d="M0 0 C1.65 0 3.3 0 5 0 C5 0.99 5 1.98 5 3 C3.35 3.66 1.7 4.32 0 5 C0 3.35 0 1.7 0 0 Z " fill="#FEFEF9" transform="translate(171,147)"/>
<path d="M0 0 C0.33 0 0.66 0 1 0 C1 2.31 1 4.62 1 7 C0.01 7.33 -0.98 7.66 -2 8 C-2.6875 6.25 -2.6875 6.25 -3 4 C-1.625 1.75 -1.625 1.75 0 0 Z " fill="#156DB2" transform="translate(191,90)"/>
<path d="M0 0 C1.33855056 0.78281305 2.67073644 1.57651877 4 2.375 C5.11375 3.03628906 5.11375 3.03628906 6.25 3.7109375 C6.8275 4.13632812 7.405 4.56171875 8 5 C8 5.66 8 6.32 8 7 C4.66272214 5.82744291 2.22562513 4.81131596 0 2 C0 1.34 0 0.68 0 0 Z " fill="#1171BD" transform="translate(169,57)"/>
<path d="M0 0 C2.31 0.66 4.62 1.32 7 2 C7 2.33 7 2.66 7 3 C3.625 3.625 3.625 3.625 0 4 C-0.66 3.34 -1.32 2.68 -2 2 C-1.34 1.34 -0.68 0.68 0 0 Z " fill="#D9E4EA" transform="translate(89,33)"/>
<path d="M0 0 C1.32 1.32 2.64 2.64 4 4 C2.68 4.33 1.36 4.66 0 5 C-0.99 3.68 -1.98 2.36 -3 1 C-2.01 0.67 -1.02 0.34 0 0 Z " fill="#0660A2" transform="translate(54,159)"/>
<path d="M0 0 C-1.28062485 1.7074998 -2.61767557 3.37373596 -4 5 C-4.66 5 -5.32 5 -6 5 C-6 4.34 -6 3.68 -6 3 C-5.34 3 -4.68 3 -4 3 C-4 2.34 -4 1.68 -4 1 C-4.66 0.67 -5.32 0.34 -6 0 C-3 -1 -3 -1 0 0 Z " fill="#2E86C0" transform="translate(112,111)"/>
<path d="M0 0 C0.66 0 1.32 0 2 0 C2.33 1.65 2.66 3.3 3 5 C1.35 5 -0.3 5 -2 5 C-2 4.34 -2 3.68 -2 3 C-1.34 3 -0.68 3 0 3 C0 2.01 0 1.02 0 0 Z " fill="#E5F2F6" transform="translate(183,83)"/>
<path d="M0 0 C0.66 0 1.32 0 2 0 C2.6875 2.25 2.6875 2.25 3 5 C1.5625 7.3125 1.5625 7.3125 0 9 C0.33 7.02 0.66 5.04 1 3 C0.34 2.67 -0.32 2.34 -1 2 C-0.67 1.34 -0.34 0.68 0 0 Z " fill="#126FAD" transform="translate(106,79)"/>
<path d="M0 0 C1.32 0 2.64 0 4 0 C3.67 2.64 3.34 5.28 3 8 C1.0549 5.08235 0.54723683 3.37462715 0 0 Z " fill="#EBF7FA" transform="translate(132,64)"/>
</svg>
